<svg width="15" height="12" viewBox="0 0 15 12" fill="none" xmlns="http://www.w3.org/2000/svg">
<path d="M12.7661 4.83378C12.7661 4.83378 12.5982 4.84612 12.3217 4.89797C12.0452 4.94982 11.66 5.03871 11.2205 5.18191C10.781 5.32264 10.2847 5.51523 9.77365 5.75225C9.26503 5.98928 8.73913 6.27322 8.23545 6.58925C7.97867 6.74233 7.73423 6.9127 7.49474 7.07812C7.25524 7.24848 7.02562 7.42872 6.81082 7.60402C6.37627 7.9645 5.99604 8.33485 5.68988 8.68052C5.38125 9.02618 5.14423 9.34468 4.99115 9.58912C4.83313 9.82367 4.75659 9.97922 4.75659 9.97922C4.15415 11.2211 2.65792 11.7421 1.41353 11.1397C0.169145 10.5397 -0.351819 9.04593 0.250623 7.80401C0.672826 6.93245 1.53698 6.41889 2.44559 6.3942C2.44559 6.3942 2.61842 6.39173 2.89989 6.34235C3.18382 6.30532 3.57146 6.22137 4.01342 6.0831C4.45784 5.94978 4.95411 5.75719 5.46026 5.51276C5.7121 5.38931 5.96888 5.25351 6.22319 5.10784C6.47503 4.9597 6.72934 4.80662 6.97624 4.63626C7.47252 4.31034 7.94904 3.94987 8.37865 3.58445C8.80579 3.21904 9.18602 2.84868 9.49712 2.50796C9.80821 2.16723 10.0477 1.85367 10.2107 1.62405C10.3736 1.39443 10.4551 1.24875 10.4551 1.24875C11.1045 0.0784373 12.5785 -0.343766 13.7512 0.303118C14.9216 0.950003 15.3438 2.42401 14.6969 3.59433C14.2895 4.32516 13.5438 4.76464 12.7661 4.83378Z" fill="black"/>
</svg>
