<svg width="40" height="40" viewBox="0 0 40 40" fill="none" xmlns="http://www.w3.org/2000/svg">
<g clip-path="url(#clip0_5_1237)">
<path d="M29.3333 0.000915527C28.6259 0.000923953 27.9474 0.281797 27.4472 0.781747C26.9469 1.2817 26.6659 1.95977 26.6659 2.6668V4.00105H2.66745C1.96001 4.00105 1.28155 4.28191 0.781314 4.78183C0.281074 5.28175 2.80846e-05 5.95979 1.11282e-10 6.6668C-3.19947e-06 7.01689 0.0689899 7.36354 0.20304 7.68698C0.33709 8.01042 0.533572 8.30431 0.781268 8.55186C1.02896 8.79941 1.32302 8.99578 1.64665 9.12975C1.97028 9.26373 2.31715 9.33268 2.66745 9.33269H26.6659V10.6685C26.6659 11.3755 26.9469 12.0536 27.4472 12.5535C27.9474 13.0535 28.6259 13.3344 29.3333 13.3344C30.0408 13.3344 30.7193 13.0535 31.2195 12.5535C31.7198 12.0536 32.0008 11.3755 32.0008 10.6685V9.33269H37.3324C37.6827 9.3327 38.0296 9.26375 38.3533 9.12979C38.6769 8.99582 38.971 8.79945 39.2187 8.5519C39.4664 8.30435 39.6629 8.01046 39.797 7.68701C39.931 7.36357 40 7.0169 40 6.6668C40 6.31671 39.931 5.97006 39.7969 5.64663C39.6628 5.3232 39.4664 5.02932 39.2186 4.78178C38.9709 4.53424 38.6769 4.33789 38.3532 4.20393C38.0296 4.06997 37.6827 4.00103 37.3324 4.00105H32.0008V2.6668C32.0008 1.95977 31.7198 1.2817 31.2195 0.781747C30.7193 0.281797 30.0408 0.000923953 29.3333 0.000915527ZM10 13.3342C9.64969 13.3342 9.30281 13.4032 8.97917 13.5371C8.65552 13.6711 8.36145 13.8675 8.11374 14.115C7.86603 14.3626 7.66954 14.6565 7.53548 14.9799C7.40142 15.3034 7.33242 15.65 7.33242 16.0001V17.3342H2.66823C2.31793 17.3342 1.97107 17.4032 1.64743 17.5372C1.3238 17.6712 1.02974 17.8675 0.782049 18.1151C0.534353 18.3626 0.337871 18.6565 0.203821 18.9799C0.0697711 19.3034 0.000778005 19.65 0.000781238 20.0001C0.000778005 20.3502 0.0697711 20.6969 0.203821 21.0203C0.337871 21.3438 0.534353 21.6376 0.782049 21.8852C1.02974 22.1327 1.3238 22.3291 1.64743 22.4631C1.97107 22.5971 2.31793 22.666 2.66823 22.666H7.33242V24.0018C7.33242 24.3519 7.40142 24.6986 7.53548 25.022C7.66954 25.3455 7.86603 25.6394 8.11374 25.8869C8.36145 26.1345 8.65552 26.3308 8.97917 26.4648C9.30281 26.5988 9.64969 26.6677 10 26.6677C10.7075 26.6677 11.3859 26.3868 11.8862 25.8869C12.3864 25.3869 12.6675 24.7089 12.6674 24.0018V22.666H37.3333C37.6836 22.666 38.0305 22.5971 38.3541 22.4631C38.6778 22.3291 38.9718 22.1327 39.2195 21.8852C39.4672 21.6376 39.6637 21.3438 39.7977 21.0203C39.9318 20.6969 40.0008 20.3502 40.0008 20.0001C40.0008 19.65 39.9318 19.3034 39.7977 18.9799C39.6637 18.6565 39.4672 18.3626 39.2195 18.1151C38.9718 17.8675 38.6778 17.6712 38.3541 17.5372C38.0305 17.4032 37.6836 17.3342 37.3333 17.3342H12.6674V16.0001C12.6675 15.2931 12.3864 14.615 11.8862 14.1151C11.3859 13.6151 10.7075 13.3343 10 13.3342ZM18.6667 26.6677C17.9592 26.6677 17.2808 26.9486 16.7805 27.4485C16.2803 27.9484 15.9993 28.6265 15.9992 29.3335V30.6676H2.66823C2.31793 30.6676 1.97107 30.7365 1.64743 30.8705C1.3238 31.0045 1.02974 31.2009 0.782049 31.4484C0.534353 31.696 0.337871 31.9898 0.203821 32.3133C0.0697711 32.6367 0.000778005 32.9834 0.000781238 33.3335C0.000809373 34.0405 0.281855 34.7185 0.782095 35.2184C1.28233 35.7184 1.96079 35.9992 2.66823 35.9992H15.9992V37.3352C15.9993 38.0422 16.2803 38.7202 16.7805 39.2201C17.2808 39.7201 17.9592 40.0009 18.6667 40.0009C19.3741 40.0009 20.0526 39.7201 20.5528 39.2201C21.053 38.7202 21.3341 38.0422 21.3341 37.3352V35.9992H37.3333C38.0408 35.9992 38.7192 35.7184 39.2195 35.2184C39.7197 34.7185 40.0008 34.0405 40.0008 33.3335C40.0008 32.9834 39.9318 32.6367 39.7977 32.3133C39.6637 31.9898 39.4672 31.696 39.2195 31.4484C38.9718 31.2009 38.6778 31.0045 38.3541 30.8705C38.0305 30.7365 37.6836 30.6676 37.3333 30.6676H21.3341V29.3335C21.3341 28.6265 21.053 27.9484 20.5528 27.4485C20.0526 26.9486 19.3741 26.6677 18.6667 26.6677Z" fill="black"/>
</g>
<defs>
<clipPath id="clip0_5_1237">
<rect width="40" height="40" fill="white"/>
</clipPath>
</defs>
</svg>
