<svg width="21" height="23" viewBox="0 0 21 23" fill="none" xmlns="http://www.w3.org/2000/svg">
<path d="M12.8644 19.7664C12.8644 19.7664 12.8102 19.5002 12.6747 19.0666C12.5392 18.6329 12.3174 18.0391 12.002 17.3689C11.8443 17.0313 11.6669 16.674 11.4624 16.3118C11.2628 15.9422 11.0361 15.5677 10.7947 15.1858C10.5532 14.8039 10.2846 14.4244 10.0111 14.04C9.72529 13.6679 9.43947 13.2836 9.13393 12.9189C8.83086 12.5518 8.51547 12.192 8.19022 11.852C7.8699 11.5095 7.52987 11.1941 7.19969 10.8861C6.86459 10.5855 6.52948 10.3046 6.19684 10.0483C5.86667 9.79207 5.53895 9.56046 5.22849 9.35841C4.6051 8.94692 4.03591 8.65124 3.61703 8.46151C3.19569 8.27178 2.92711 8.18801 2.92711 8.18801C0.716901 7.48577 -0.505244 5.12772 0.199461 2.92244C0.901701 0.714692 3.26221 -0.504989 5.47242 0.199715C7.04199 0.697444 8.11137 2.03047 8.35038 3.55076C8.35038 3.55076 8.39227 3.82673 8.51547 4.27271C8.63867 4.71623 8.84564 5.32238 9.15364 5.99997C9.30888 6.33754 9.48628 6.69482 9.6908 7.06196C9.89284 7.42663 10.1195 7.80116 10.3659 8.18062C10.6173 8.55022 10.8784 8.93706 11.1692 9.30667C11.4575 9.67626 11.763 10.0434 12.0809 10.3982C12.3963 10.758 12.7314 11.098 13.0566 11.4356C13.3967 11.7633 13.7293 12.0861 14.0718 12.3817C14.4118 12.6799 14.7469 12.9632 15.082 13.2146C15.4097 13.4733 15.7375 13.7049 16.0455 13.9094C16.6615 14.3258 17.2183 14.6338 17.6224 14.8359C18.0314 15.033 18.2877 15.1291 18.2877 15.1291C20.392 15.9225 21.4539 18.2658 20.663 20.3676C19.8696 22.4694 17.5189 23.5289 15.4147 22.7379C14.0718 22.2328 13.1478 21.0698 12.8644 19.7664Z" fill="black"/>
</svg>
