<svg width="94" height="99" viewBox="0 0 94 99" fill="none" xmlns="http://www.w3.org/2000/svg">
<path fill-rule="evenodd" clip-rule="evenodd" d="M49.5942 0.993062C47.9069 -0.331021 45.5444 -0.331021 43.8572 0.993062L1.80389 33.9931C0.665701 34.8862 0 36.2595 0 37.7143V89.5714C0 94.7788 4.18396 99 9.34513 99H84.1062C89.2675 99 93.4513 94.7788 93.4513 89.5714V37.7143C93.4513 36.2595 92.7855 34.8862 91.6472 33.9931L49.5942 0.993062ZM65.4159 89.5714H84.1062V40.02L46.7257 10.6866L9.34513 40.02V89.5714H28.0354V51.8571C28.0354 49.2534 30.1274 47.1429 32.708 47.1429H60.7434C63.324 47.1429 65.4159 49.2534 65.4159 51.8571V89.5714ZM37.3805 89.5714V56.5714H56.0708V89.5714H37.3805Z" fill="black"/>
</svg>
