<svg width="15" height="12" viewBox="0 0 15 12" fill="none" xmlns="http://www.w3.org/2000/svg">
<path d="M4.54571 1.24686C4.54571 1.24686 4.62718 1.395 4.78767 1.62461C4.95062 1.85176 5.19011 2.16778 5.50367 2.50603C5.81229 2.84922 6.19498 3.21956 6.62211 3.58497C7.05171 3.95038 7.52822 4.31085 8.02448 4.63675C8.26891 4.80464 8.52321 4.95772 8.77752 5.10832C9.03182 5.25399 9.28612 5.38732 9.54043 5.51077C10.0466 5.75766 10.5428 5.94777 10.9848 6.08357C11.4267 6.22183 11.8168 6.30577 12.1032 6.34528C12.3822 6.38972 12.555 6.39466 12.555 6.39466C13.9377 6.42675 15.0314 7.57235 14.9993 8.95251C14.9647 10.3302 13.8191 11.4215 12.4365 11.3869C11.4687 11.3647 10.6391 10.7944 10.2441 9.9796C10.2441 9.9796 10.1675 9.82405 10.0095 9.58703C9.85645 9.34507 9.61943 9.02657 9.31081 8.68092C9.00219 8.33526 8.62444 7.96245 8.1899 7.60445C7.97263 7.42668 7.74549 7.24892 7.506 7.07856C7.26651 6.91314 7.01961 6.74278 6.76531 6.5897C6.26164 6.27368 5.73575 5.98975 5.22467 5.75272C4.7136 5.5157 4.21733 5.32312 3.77786 5.18239C3.34085 5.03919 2.95322 4.95031 2.6767 4.89846C2.40018 4.84661 2.23475 4.8318 2.23475 4.8318C0.899044 4.7281 -0.0984187 3.56275 0.00774699 2.22951C0.113913 0.896267 1.28173 -0.0962575 2.61498 0.00743877C3.45196 0.074101 4.16302 0.567894 4.54571 1.24686Z" fill="#FF3131"/>
</svg>
