<svg width="28" height="21" viewBox="0 0 28 21" fill="none" xmlns="http://www.w3.org/2000/svg">
<path d="M13.2013 5.44966L4.55705 12.5906V20.2483C4.55705 20.6711 4.88591 21 5.30872 21H10.5705C10.9463 21 11.2752 20.6711 11.2752 20.2483V15.7383C11.2752 15.3624 11.651 14.9866 12.0268 14.9866H15.0336C15.4564 14.9866 15.7852 15.3624 15.7852 15.7383V20.2483C15.7852 20.6711 16.1611 21 16.5369 21H21.8456C22.2215 21 22.5973 20.6711 22.5973 20.2483V12.5436L13.906 5.44966C13.8121 5.3557 13.6711 5.30872 13.5772 5.30872C13.4362 5.30872 13.2953 5.3557 13.2013 5.44966ZM26.8725 10.2886L22.9732 7.04698V0.563758C22.9732 0.234899 22.6913 0 22.4094 0H19.7785C19.4497 0 19.2148 0.234899 19.2148 0.563758V3.94631L14.9866 0.469799C14.6107 0.187919 14.094 0 13.5772 0C13.0134 0 12.4966 0.187919 12.1208 0.469799L0.234899 10.2886C0.0939597 10.3826 0 10.5705 0 10.7114C0 10.8523 0.0939597 10.9933 0.14094 11.0872L1.36242 12.5436C1.45638 12.6846 1.59732 12.7315 1.78523 12.7315C1.92617 12.7315 2.06711 12.6846 2.16107 12.5906L13.2013 3.52349C13.2953 3.42953 13.4362 3.38255 13.5772 3.38255C13.6711 3.38255 13.8121 3.42953 13.906 3.52349L24.9463 12.5906C25.0403 12.6846 25.1812 12.7315 25.3221 12.7315C25.5101 12.7315 25.651 12.6846 25.745 12.5436L26.9664 11.0872C27.0604 10.9933 27.1074 10.8523 27.1074 10.7114C27.1074 10.5705 27.0134 10.3826 26.8725 10.2886Z" fill="white"/>
</svg>
