<svg width="104" height="104" viewBox="0 0 104 104" fill="none" xmlns="http://www.w3.org/2000/svg">
<path d="M27.4798 44.5098C27.4798 44.5098 27.5914 44.4676 27.7712 44.3798C27.95 44.2921 28.1937 44.1556 28.4646 43.9736C28.6011 43.8826 28.7441 43.7807 28.8892 43.6681C29.0366 43.5565 29.1839 43.433 29.3334 43.3019C29.4829 43.1719 29.6292 43.03 29.7787 42.8859C29.9217 42.7364 30.0701 42.5869 30.2087 42.4298C30.3485 42.2727 30.4817 42.1124 30.6085 41.9488C30.7374 41.7874 30.8512 41.6173 30.9627 41.4548C31.07 41.288 31.1707 41.1233 31.2596 40.9619C31.3473 40.8016 31.4264 40.6434 31.4947 40.4961C31.6312 40.1982 31.7222 39.9306 31.7763 39.7356C31.8294 39.5406 31.8489 39.4182 31.8489 39.4182C32.0049 38.4128 32.9485 37.7238 33.956 37.8798C34.9635 38.0358 35.6536 38.9772 35.4976 39.9837C35.3871 40.6965 34.8768 41.2512 34.2322 41.457C34.2322 41.457 34.1152 41.4938 33.93 41.5772C33.7447 41.6607 33.4945 41.7917 33.2204 41.9716C33.085 42.0615 32.9409 42.1633 32.7947 42.2749C32.6495 42.3876 32.5022 42.5111 32.3537 42.6443C32.2086 42.7787 32.0591 42.9173 31.9182 43.069C31.7763 43.2185 31.6377 43.3756 31.5033 43.537C31.369 43.6984 31.2433 43.8674 31.1177 44.031C30.9985 44.2 30.8804 44.3668 30.7742 44.5347C30.6681 44.7016 30.5673 44.8662 30.4796 45.0287C30.3897 45.1891 30.3117 45.3462 30.2434 45.4935C30.1037 45.7892 30.0072 46.0514 29.9466 46.2399C29.8881 46.4317 29.8632 46.5487 29.8632 46.5487C29.6606 47.515 28.7116 48.1347 27.7442 47.9321C26.7757 47.7295 26.156 46.7827 26.3575 45.8163C26.4864 45.1999 26.9317 44.7211 27.4798 44.5098Z" fill="#FF3131"/>
<path d="M42.0767 29.25C42.0767 29.25 42.1883 29.2077 42.3681 29.12C42.5468 29.0322 42.7906 28.8957 43.0614 28.7137C43.1979 28.6227 43.3409 28.5209 43.4861 28.4082C43.6323 28.2967 43.7808 28.1732 43.9292 28.0421C44.0798 27.9121 44.226 27.7702 44.3755 27.6261C44.5185 27.4766 44.6669 27.3271 44.8056 27.17C44.9443 27.0129 45.0786 26.8526 45.2053 26.689C45.3332 26.5265 45.448 26.3575 45.5596 26.1939C45.6668 26.0271 45.7676 25.8635 45.8564 25.7021C45.9442 25.5407 46.0233 25.3847 46.0915 25.2352C46.2269 24.9372 46.319 24.6707 46.3732 24.4757C46.4263 24.2807 46.4458 24.1594 46.4458 24.1594C46.6007 23.153 47.5453 22.464 48.5528 22.62C49.5603 22.776 50.2504 23.7185 50.0944 24.7238C49.9839 25.4367 49.4737 25.9913 48.8291 26.1972C48.8291 26.1972 48.7121 26.2351 48.5268 26.3185C48.3416 26.4008 48.0913 26.5319 47.8173 26.7117C47.6808 26.8017 47.5378 26.9035 47.3915 27.0151C47.2453 27.1277 47.099 27.2523 46.9506 27.3834C46.8054 27.5188 46.6559 27.6575 46.5151 27.8092C46.3732 27.9587 46.2334 28.1157 46.1002 28.2772C45.9658 28.4386 45.8402 28.6065 45.7145 28.7712C45.5953 28.9402 45.4773 29.107 45.3722 29.2749C45.2649 29.4417 45.1653 29.6064 45.0764 29.7689C44.9865 29.9282 44.9085 30.0863 44.8392 30.2347C44.7005 30.5294 44.6041 30.7905 44.5434 30.9812C44.4849 31.1718 44.46 31.2888 44.46 31.2888C44.2574 32.2552 43.3084 32.8737 42.341 32.6722C41.3725 32.4697 40.7518 31.5228 40.9543 30.5565C41.0833 29.9401 41.5285 29.4602 42.0767 29.25Z" fill="#FF3131"/>
<path d="M31.5987 23.8474C31.5987 23.8474 31.6171 23.9059 31.6583 23.9926C31.6994 24.0814 31.7623 24.2006 31.8489 24.3241C31.9367 24.4487 32.0461 24.5808 32.1739 24.7054C32.3018 24.8311 32.448 24.9481 32.604 25.0499C32.7589 25.155 32.9247 25.2406 33.0915 25.3045C33.2573 25.3673 33.4241 25.4085 33.5758 25.4302C33.7274 25.4508 33.8639 25.4529 33.9647 25.4443C34.0643 25.4388 34.1283 25.4258 34.1283 25.4258C34.9386 25.2471 35.7403 25.7584 35.919 26.5688C36.0978 27.378 35.5843 28.1775 34.7739 28.3563C33.9733 28.5318 33.1814 28.0334 32.9897 27.2426C32.9897 27.2426 32.9745 27.1787 32.9355 27.0877C32.8987 26.9934 32.8369 26.8721 32.7524 26.7453C32.6668 26.6175 32.5563 26.4864 32.4263 26.3651C32.2963 26.2438 32.1458 26.1311 31.9843 26.039C31.824 25.9437 31.655 25.8635 31.486 25.8039C31.3181 25.7443 31.1513 25.7032 31.0007 25.6793C30.8512 25.6555 30.7158 25.6512 30.6183 25.6523C30.5218 25.6544 30.4612 25.6642 30.4612 25.6642C29.6877 25.7833 28.964 25.2536 28.8448 24.4812C28.7257 23.7077 29.2565 22.9862 30.03 22.8681C30.7331 22.7598 31.395 23.1877 31.5987 23.8474Z" fill="#FF3131"/>
<path d="M49.8312 53.9402C49.8312 53.9402 49.7998 53.9922 49.7629 54.0822C49.725 54.1732 49.6806 54.2999 49.6481 54.4472C49.6156 54.5957 49.5928 54.7657 49.5874 54.9434C49.582 55.1222 49.5939 55.3096 49.6253 55.4937C49.6524 55.6768 49.7023 55.8577 49.7673 56.0224C49.8333 56.1882 49.9168 56.3377 50.0045 56.4633C50.0912 56.589 50.1822 56.6897 50.2569 56.7591C50.3273 56.8284 50.3804 56.8663 50.3804 56.8663C51.0618 57.3397 51.2276 58.2757 50.7531 58.955C50.2764 59.6342 49.3393 59.8 48.6601 59.3255C47.9873 58.8575 47.8173 57.9388 48.2712 57.2617C48.2712 57.2617 48.3069 57.2076 48.3481 57.1177C48.3925 57.0267 48.4413 56.8988 48.4759 56.7493C48.5117 56.6009 48.5344 56.4308 48.5366 56.2532C48.5366 56.0755 48.5182 55.8902 48.4759 55.7082C48.4391 55.5262 48.3828 55.3475 48.3113 55.1839C48.2419 55.0192 48.1585 54.8687 48.0751 54.743C47.9906 54.6152 47.9028 54.5144 47.8357 54.444C47.7685 54.3736 47.7198 54.3346 47.7198 54.3346C47.1088 53.8482 47.0091 52.9577 47.4966 52.3467C47.9852 51.7367 48.8768 51.636 49.4888 52.1246C50.0446 52.5666 50.1778 53.3433 49.8312 53.9402Z" fill="#FF3131"/>
<path d="M44.0776 18.9356C44.0776 18.9356 44.1513 18.9161 44.265 18.8684C44.3788 18.8207 44.5369 18.7471 44.7092 18.6452C44.8825 18.5434 45.0721 18.4123 45.2606 18.2607C45.4513 18.109 45.6387 17.9346 45.8131 17.7472C45.9897 17.563 46.1489 17.3626 46.2854 17.1632C46.4208 16.9617 46.5303 16.7602 46.6126 16.5761C46.6949 16.393 46.7502 16.2272 46.7805 16.1027C46.8119 15.9824 46.8217 15.9044 46.8217 15.9044C46.9051 15.1818 47.5594 14.6629 48.2831 14.7463C49.0068 14.8297 49.5257 15.483 49.4423 16.2056C49.3773 16.7787 48.9493 17.2228 48.4153 17.3409C48.4153 17.3409 48.3383 17.3582 48.2213 17.4027C48.1011 17.4449 47.9408 17.5164 47.7663 17.6161C47.5919 17.7168 47.4013 17.8468 47.2149 18.0007C47.0297 18.1567 46.8455 18.3354 46.6808 18.5293C46.5108 18.7211 46.3569 18.9258 46.2248 19.1295C46.0915 19.3321 45.981 19.5336 45.8976 19.7167C45.8131 19.8976 45.7557 20.0622 45.7199 20.1803C45.6842 20.2984 45.6712 20.3732 45.6712 20.3732C45.5498 21.0611 44.8933 21.5215 44.2033 21.4002C43.5132 21.2788 43.0528 20.6234 43.1741 19.9355C43.2608 19.4404 43.6248 19.0645 44.0776 18.9356Z" fill="#FF3131"/>
<path d="M50.3414 38.2438C50.3414 38.2438 50.2742 38.3955 50.1778 38.6642C50.0825 38.9318 49.9622 39.3153 49.8452 39.7789C49.7867 40.0097 49.7282 40.261 49.6752 40.5264C49.6188 40.7918 49.5701 41.0724 49.5235 41.3628C49.4758 41.6542 49.4379 41.9553 49.4 42.2608C49.3686 42.5674 49.3339 42.8783 49.3144 43.1903C49.2873 43.5023 49.2754 43.8143 49.2635 44.122C49.2548 44.4297 49.2548 44.733 49.2602 45.0277C49.2678 45.3213 49.2808 45.6062 49.3014 45.8759C49.322 46.1468 49.3491 46.4035 49.3794 46.6397C49.4401 47.1142 49.5202 47.5107 49.5885 47.7891C49.6578 48.0675 49.7131 48.2278 49.7131 48.2278C50.0175 49.114 49.5452 50.0782 48.6579 50.3826C47.7696 50.687 46.8032 50.2147 46.4988 49.3285C46.3461 48.8865 46.3894 48.4207 46.5801 48.0307C46.5801 48.0307 46.6548 47.879 46.7588 47.6114C46.8617 47.3438 46.9907 46.9603 47.1109 46.4978C47.1705 46.267 47.229 46.0157 47.2842 45.7503C47.3373 45.4848 47.3872 45.2043 47.4316 44.9128C47.4727 44.6225 47.5117 44.3203 47.541 44.0148C47.5692 43.7071 47.5952 43.3962 47.6082 43.0831C47.6277 42.7711 47.632 42.4591 47.6396 42.1503C47.6396 41.8416 47.6396 41.5383 47.6298 41.2447C47.6201 40.95 47.606 40.6651 47.5832 40.3953C47.5648 40.1245 47.5377 39.8678 47.5085 39.6316C47.4511 39.1582 47.3796 38.7617 47.3189 38.4843C47.2561 38.2059 47.2084 38.0467 47.2084 38.0467C46.9452 37.1627 47.4489 36.2332 48.334 35.9699C49.218 35.7067 50.1507 36.2093 50.414 37.0923C50.5321 37.4877 50.4963 37.8939 50.3414 38.2438Z" fill="#FF3131"/>
<path d="M34.7002 44.7113C34.7002 44.7113 34.814 44.6366 34.996 44.4958C35.1769 44.3538 35.4217 44.1426 35.6915 43.875C35.8269 43.7407 35.9688 43.5933 36.1118 43.433C36.257 43.2727 36.4032 43.0993 36.5484 42.9184C36.6957 42.7375 36.8377 42.5447 36.9828 42.3486C37.1215 42.1493 37.2645 41.9478 37.3977 41.7398C37.531 41.5318 37.6588 41.3216 37.778 41.1093C37.8993 40.8991 38.0066 40.6835 38.1106 40.4755C38.2102 40.2653 38.3023 40.0595 38.3825 39.8602C38.4627 39.6598 38.5331 39.468 38.5916 39.2871C38.7107 38.9253 38.7855 38.6078 38.8267 38.3793C38.8667 38.1496 38.8776 38.012 38.8776 38.012C38.948 37.0359 39.7973 36.3036 40.7745 36.374C41.7506 36.4444 42.4862 37.2927 42.4147 38.2677C42.3713 38.8678 42.0236 39.3813 41.5426 39.6673C41.5426 39.6673 41.4223 39.7378 41.2338 39.8753C41.0464 40.0129 40.7951 40.2198 40.5221 40.4853C40.3856 40.6185 40.2437 40.7658 40.0996 40.9262C39.9544 41.0865 39.8103 41.2598 39.6652 41.4418C39.5243 41.6271 39.3781 41.8178 39.2427 42.0193C39.1062 42.2197 38.9718 42.4277 38.8451 42.6389C38.7172 42.8502 38.5992 43.0668 38.4811 43.2792C38.3684 43.4948 38.2568 43.7082 38.1604 43.9194C38.0607 44.1307 37.9697 44.3376 37.8917 44.538C37.8094 44.7363 37.7401 44.9291 37.6794 45.1089C37.557 45.4697 37.4757 45.7828 37.4281 46.0059C37.3815 46.2323 37.3652 46.3667 37.3652 46.3667C37.2504 47.3146 36.3881 47.9895 35.438 47.8758C34.4879 47.7609 33.8119 46.8997 33.9267 45.9518C33.9907 45.4274 34.2897 44.9811 34.7002 44.7113Z" fill="#FF3131"/>
<path d="M33.2237 49.7683C33.2237 49.7683 33.2551 49.8832 33.3266 50.0695C33.3981 50.2548 33.5129 50.5083 33.67 50.7932C33.748 50.9351 33.8358 51.0868 33.9354 51.2406C34.034 51.3966 34.1445 51.5526 34.2615 51.7118C34.3774 51.8722 34.5053 52.0303 34.6363 52.1907C34.7718 52.3456 34.9072 52.5048 35.0523 52.6565C35.1953 52.8082 35.3438 52.9555 35.4954 53.0953C35.6449 53.2361 35.8031 53.3639 35.9558 53.4885C36.1118 53.6098 36.2668 53.7236 36.4195 53.8254C36.5723 53.9273 36.7218 54.0183 36.8637 54.0995C37.1475 54.2598 37.4053 54.3725 37.5949 54.4429C37.7845 54.5133 37.9048 54.5426 37.9048 54.5426C38.896 54.7853 39.5038 55.7841 39.26 56.7732C39.0173 57.7633 38.0163 58.3689 37.0262 58.1263C36.3209 57.954 35.8096 57.3961 35.6612 56.7353C35.6612 56.7353 35.6341 56.6139 35.5691 56.4233C35.5019 56.2326 35.3936 55.9737 35.2398 55.6866C35.1618 55.5436 35.0729 55.3919 34.9754 55.237C34.8758 55.0832 34.7653 54.9261 34.6472 54.7679C34.5258 54.613 34.4002 54.4516 34.2626 54.2988C34.1261 54.145 33.982 53.9933 33.8336 53.8471C33.6852 53.6998 33.5281 53.5611 33.3753 53.4213C33.2172 53.2892 33.0623 53.157 32.9052 53.0368C32.747 52.9165 32.5921 52.8038 32.4393 52.7031C32.2866 52.6002 32.1382 52.5092 31.9963 52.4279C31.7146 52.2643 31.4622 52.1452 31.2791 52.0693C31.0949 51.9946 30.9801 51.9599 30.9801 51.9599C30.0322 51.675 29.4948 50.6773 29.7808 49.7315C30.0658 48.7858 31.0657 48.2495 32.0136 48.5344C32.6203 48.7175 33.0612 49.2028 33.2237 49.7683Z" fill="#FF3131"/>
<path d="M39.4994 51.1962C39.4994 51.1962 39.585 51.1019 39.7161 50.9329C39.8461 50.7628 40.0162 50.5169 40.1927 50.2125C40.2827 50.0608 40.3737 49.894 40.4625 49.7174C40.5524 49.5398 40.6402 49.3502 40.7247 49.1541C40.8113 48.9569 40.8893 48.75 40.9684 48.5409C41.0421 48.3286 41.1168 48.1141 41.1818 47.8963C41.2479 47.6797 41.3075 47.4598 41.3584 47.2431C41.4115 47.0243 41.4494 46.8076 41.4862 46.5963C41.5187 46.384 41.5458 46.1782 41.5632 45.9799C41.5794 45.7828 41.5892 45.5932 41.5913 45.4166C41.5978 45.0645 41.5751 44.7633 41.5469 44.5488C41.5177 44.3333 41.4862 44.2065 41.4862 44.2065C41.2468 43.2391 41.8372 42.2608 42.8068 42.0214C43.7753 41.782 44.7557 42.3724 44.9952 43.3398C45.1544 43.9812 44.9464 44.6301 44.5066 45.0623C44.5066 45.0623 44.4123 45.1544 44.2747 45.3213C44.1382 45.4892 43.9595 45.7329 43.7786 46.0363C43.6887 46.1879 43.5977 46.3537 43.5077 46.5313C43.4178 46.7079 43.3322 46.8975 43.2488 47.0958C43.1697 47.2951 43.0863 47.4998 43.0181 47.7122C42.9466 47.9245 42.8816 48.1423 42.8231 48.3622C42.7635 48.5799 42.7158 48.8031 42.666 49.0208C42.6227 49.2418 42.5804 49.4574 42.5512 49.6708C42.5197 49.8832 42.4937 50.0901 42.4786 50.2883C42.4591 50.4855 42.4493 50.674 42.445 50.8506C42.4363 51.2016 42.4515 51.5006 42.4721 51.714C42.4948 51.9263 42.5187 52.0509 42.5187 52.0509C42.705 53.0032 42.0821 53.9251 41.1277 54.1114C40.1743 54.2967 39.2502 53.6759 39.065 52.7226C38.9545 52.156 39.1376 51.5916 39.4994 51.1962Z" fill="#FF3131"/>
<path d="M42.5642 58.4166C42.5642 58.4166 42.5999 58.4816 42.6703 58.5823C42.7418 58.682 42.8469 58.8207 42.9845 58.9691C43.1199 59.1197 43.2878 59.2822 43.4753 59.4425C43.6638 59.6028 43.8728 59.761 44.0906 59.904C44.1978 59.9777 44.3094 60.0448 44.421 60.1109C44.5326 60.1748 44.6442 60.2333 44.7558 60.2875C44.9778 60.3958 45.1956 60.4792 45.3895 60.5388C45.5834 60.5995 45.7546 60.6363 45.8803 60.6537C46.0027 60.6732 46.0785 60.6753 46.0785 60.6753C46.6852 60.6894 47.1651 61.1921 47.151 61.7977C47.1358 62.4022 46.6332 62.881 46.0265 62.8658C45.6018 62.8561 45.2378 62.6058 45.0645 62.2483C45.0645 62.2483 45.0309 62.1801 44.9616 62.0761C44.8944 61.9699 44.7904 61.8302 44.655 61.6785C44.5196 61.5268 44.3538 61.3632 44.1632 61.2062C44.0678 61.1282 43.9682 61.0502 43.8631 60.9754C43.758 60.9028 43.6497 60.8281 43.5381 60.7609C43.3171 60.6222 43.0863 60.4977 42.8621 60.3937C42.6378 60.2897 42.4201 60.2052 42.2273 60.1434C42.0355 60.0806 41.8654 60.0416 41.7441 60.0188C41.6228 59.9961 41.5502 59.9896 41.5502 59.9896C40.9641 59.9441 40.5264 59.4327 40.573 58.8477C40.6196 58.2627 41.132 57.8272 41.717 57.8727C42.0843 57.902 42.3963 58.1187 42.5642 58.4166Z" fill="#FF3131"/>
<path d="M27.5762 31.6713C27.5762 31.6713 27.7052 31.7341 27.9316 31.8218C28.1591 31.9085 28.483 32.0179 28.8741 32.1208C29.0702 32.1718 29.2825 32.2227 29.5057 32.2682C29.7299 32.3158 29.9682 32.357 30.212 32.3938C30.4579 32.4328 30.7125 32.4621 30.9692 32.4913C31.2282 32.513 31.4903 32.5379 31.7536 32.5488C32.0157 32.5661 32.279 32.5693 32.5379 32.5704C32.7968 32.5704 33.0514 32.5618 33.2995 32.5477C33.5465 32.5303 33.7859 32.5098 34.0134 32.4805C34.2409 32.4513 34.4565 32.4177 34.6547 32.3808C35.0523 32.305 35.3849 32.214 35.6189 32.1371C35.8518 32.0591 35.9862 31.9995 35.9862 31.9995C36.8691 31.6063 37.9037 32.0017 38.2991 32.8835C38.6923 33.7643 38.2969 34.7978 37.4129 35.191C36.8983 35.4207 36.3242 35.3773 35.8637 35.1303C35.8637 35.1303 35.7348 35.061 35.5084 34.9657C35.2809 34.8703 34.957 34.7533 34.5659 34.6472C34.3709 34.5952 34.1597 34.5432 33.9343 34.4977C33.7101 34.4511 33.4739 34.411 33.228 34.3753C32.9821 34.3417 32.7286 34.3124 32.4707 34.2918C32.2118 34.2745 31.9497 34.2561 31.6864 34.2528C31.4232 34.2442 31.1599 34.2485 30.901 34.2507C30.641 34.2583 30.3864 34.2669 30.1383 34.2875C29.8913 34.3059 29.6519 34.3276 29.4244 34.3579C29.1969 34.385 28.9813 34.4197 28.7831 34.4565C28.3855 34.5269 28.0529 34.6103 27.82 34.6797C27.5871 34.7501 27.4527 34.8021 27.4527 34.8021C26.5731 35.1477 25.5775 34.7143 25.233 33.8347C24.8863 32.955 25.3207 31.9627 26.2015 31.6171C26.663 31.4362 27.1624 31.4719 27.5762 31.6713Z" fill="#FF3131"/>
<path d="M37.5234 27.4365C37.5234 27.4365 37.5819 27.3 37.661 27.0584C37.739 26.8179 37.8354 26.4745 37.9232 26.0617C37.9665 25.8548 38.0098 25.6317 38.0456 25.3944C38.0857 25.1593 38.1171 24.9102 38.1442 24.6523C38.1734 24.3934 38.1929 24.1269 38.2113 23.8561C38.2233 23.5852 38.2384 23.3101 38.2395 23.0349C38.246 22.7597 38.2384 22.4846 38.2308 22.2137C38.22 21.9429 38.2005 21.6764 38.1778 21.4186C38.1507 21.1607 38.1203 20.9116 38.0835 20.6754C38.0445 20.4382 38.0023 20.215 37.9568 20.0081C37.8658 19.5964 37.7618 19.2519 37.6762 19.0114C37.5884 18.7709 37.5234 18.6333 37.5234 18.6333C37.115 17.7677 37.4866 16.7353 38.3533 16.3269C39.221 15.9185 40.2545 16.2901 40.6629 17.1546C40.8915 17.6388 40.8731 18.1827 40.6629 18.6333C40.6629 18.6333 40.599 18.7709 40.5113 19.0114C40.4257 19.2519 40.3206 19.5964 40.2307 20.0081C40.1852 20.215 40.1429 20.4382 40.1039 20.6754C40.0671 20.9116 40.0368 21.1607 40.0097 21.4186C39.9858 21.6764 39.9674 21.9429 39.9566 22.2137C39.949 22.4846 39.9414 22.7597 39.9479 23.0349C39.949 23.3101 39.9631 23.5852 39.9761 23.8561C39.9945 24.1269 40.0129 24.3934 40.0422 24.6523C40.0703 24.9102 40.1018 25.1593 40.1408 25.3944C40.1776 25.6317 40.2198 25.8548 40.2643 26.0617C40.352 26.4745 40.4484 26.8179 40.5253 27.0584C40.6055 27.3 40.664 27.4365 40.664 27.4365C41.0258 28.3021 40.6163 29.2977 39.7497 29.6595C38.883 30.0202 37.8863 29.6129 37.5234 28.7473C37.3414 28.3129 37.3566 27.8406 37.5234 27.4365Z" fill="#FF3131"/>
<path d="M30.5511 38.1452C30.5511 39.182 29.7104 40.0216 28.6715 40.0216C27.6326 40.0216 26.7908 39.182 26.7908 38.1452C26.7908 37.1085 27.6326 36.2678 28.6715 36.2678C29.7104 36.2678 30.5511 37.1085 30.5511 38.1452Z" fill="#FF3131"/>
<mask id="mask0_25_447" style="mask-type:luminance" maskUnits="userSpaceOnUse" x="41" y="13" width="4" height="5">
<path d="M41.0453 13.52H44.928V17.472H41.0453V13.52Z" fill="white"/>
</mask>
<g mask="url(#mask0_25_447)">
<path d="M44.876 15.4017C44.876 16.4385 44.0343 17.2792 42.9964 17.2792C41.9575 17.2792 41.1158 16.4385 41.1158 15.4017C41.1158 14.365 41.9575 13.5243 42.9964 13.5243C44.0343 13.5243 44.876 14.365 44.876 15.4017Z" fill="#FF3131"/>
</g>
<path d="M32.253 28.9705C32.253 30.0073 31.4112 30.8479 30.3734 30.8479C29.3345 30.8479 28.4927 30.0073 28.4927 28.9705C28.4927 27.9338 29.3345 27.0942 30.3734 27.0942C31.4112 27.0942 32.253 27.9338 32.253 28.9705Z" fill="#FF3131"/>
<path d="M46.1489 55.1872C46.1489 56.2228 45.3072 57.0635 44.2693 57.0635C43.2304 57.0635 42.3887 56.2228 42.3887 55.1872C42.3887 54.1493 43.2304 53.3098 44.2693 53.3098C45.3072 53.3098 46.1489 54.1493 46.1489 55.1872Z" fill="#FF3131"/>
<path d="M50.3414 30.8479C50.3414 31.8847 49.4997 32.7242 48.4607 32.7242C47.4229 32.7242 46.5801 31.8847 46.5801 30.8479C46.5801 29.8112 47.4229 28.9705 48.4607 28.9705C49.4997 28.9705 50.3414 29.8112 50.3414 30.8479Z" fill="#FF3131"/>
<path d="M38.649 50.9524C38.649 51.5374 38.1734 52.0119 37.5884 52.0119C37.0023 52.0119 36.5278 51.5374 36.5278 50.9524C36.5278 50.3685 37.0023 49.894 37.5884 49.894C38.1734 49.894 38.649 50.3685 38.649 50.9524Z" fill="#FF3131"/>
<path d="M27.5178 42.9834C27.5178 43.5673 27.0433 44.0418 26.4572 44.0418C25.8722 44.0418 25.3977 43.5673 25.3977 42.9834C25.3977 42.3984 25.8722 41.925 26.4572 41.925C27.0433 41.925 27.5178 42.3984 27.5178 42.9834Z" fill="#FF3131"/>
<path d="M33.1619 55.1872C33.1619 55.7711 32.6874 56.2456 32.1013 56.2456C31.5163 56.2456 31.0407 55.7711 31.0407 55.1872C31.0407 54.6022 31.5163 54.1288 32.1013 54.1288C32.6874 54.1288 33.1619 54.6022 33.1619 55.1872Z" fill="#FF3131"/>
<path d="M40.4333 46.4111C40.4333 46.995 39.9588 47.4695 39.3738 47.4695C38.7888 47.4695 38.3132 46.995 38.3132 46.4111C38.3132 45.8261 38.7888 45.3527 39.3738 45.3527C39.9588 45.3527 40.4333 45.8261 40.4333 46.4111Z" fill="#FF3131"/>
<path d="M35.503 30.8479C35.503 31.4318 35.0285 31.9063 34.4424 31.9063C33.8563 31.9063 33.3818 31.4318 33.3818 30.8479C33.3818 30.2629 33.8563 29.7895 34.4424 29.7895C35.0285 29.7895 35.503 30.2629 35.503 30.8479Z" fill="#FF3131"/>
<path d="M35.503 22.9905C35.503 23.5755 35.0285 24.0489 34.4424 24.0489C33.8563 24.0489 33.3818 23.5755 33.3818 22.9905C33.3818 22.4055 33.8563 21.9321 34.4424 21.9321C35.0285 21.9321 35.503 22.4055 35.503 22.9905Z" fill="#FF3131"/>
<path d="M35.828 19.3256C35.828 19.9095 35.3535 20.384 34.7674 20.384C34.1824 20.384 33.7079 19.9095 33.7079 19.3256C33.7079 18.7406 34.1824 18.2661 34.7674 18.2661C35.3535 18.2661 35.828 18.7406 35.828 19.3256Z" fill="#FF3131"/>
<path d="M44.3289 25.1777C44.3289 25.7627 43.8544 26.2372 43.2683 26.2372C42.6823 26.2372 42.2078 25.7627 42.2078 25.1777C42.2078 24.5938 42.6823 24.1193 43.2683 24.1193C43.8544 24.1193 44.3289 24.5938 44.3289 25.1777Z" fill="#FF3131"/>
<path d="M43.0636 22.2918C43.0636 22.8757 42.588 23.3502 42.0019 23.3502C41.4169 23.3502 40.9424 22.8757 40.9424 22.2918C40.9424 21.7068 41.4169 21.2333 42.0019 21.2333C42.588 21.2333 43.0636 21.7068 43.0636 22.2918Z" fill="#FF3131"/>
<path d="M40.1537 60.7349C40.1537 61.3188 39.6792 61.7933 39.0932 61.7933C38.5082 61.7933 38.0337 61.3188 38.0337 60.7349C38.0337 60.1499 38.5082 59.6754 39.0932 59.6754C39.6792 59.6754 40.1537 60.1499 40.1537 60.7349Z" fill="#FF3131"/>
<path d="M46.3894 38.8397C46.3894 39.4247 45.9149 39.8981 45.3299 39.8981C44.7438 39.8981 44.2693 39.4247 44.2693 38.8397C44.2693 38.2547 44.7438 37.7812 45.3299 37.7812C45.9149 37.7812 46.3894 38.2547 46.3894 38.8397Z" fill="#FF3131"/>
<path d="M45.3288 35.0827C45.3288 35.6677 44.8543 36.1411 44.2693 36.1411C43.6832 36.1411 43.2087 35.6677 43.2087 35.0827C43.2087 34.4977 43.6832 34.0243 44.2693 34.0243C44.8543 34.0243 45.3288 34.4977 45.3288 35.0827Z" fill="#FF3131"/>
<path d="M74.1379 47.177C74.1379 47.177 74.1141 47.06 74.0545 46.8693C73.9949 46.6787 73.8974 46.4176 73.7587 46.1229C73.6894 45.9745 73.6114 45.8174 73.5215 45.6582C73.4337 45.4957 73.3341 45.331 73.2279 45.1631C73.1217 44.9952 73.0037 44.8283 72.8834 44.6593C72.7577 44.4958 72.6321 44.3268 72.4977 44.1664C72.3645 44.005 72.2258 43.8468 72.0828 43.6973C71.942 43.5468 71.7925 43.4081 71.6473 43.2727C71.5 43.1405 71.3527 43.017 71.2064 42.9043C71.0612 42.7917 70.9172 42.6898 70.7807 42.601C70.5066 42.4201 70.2563 42.2901 70.0722 42.2067C69.8869 42.1233 69.7688 42.0864 69.7688 42.0864C68.7971 41.7777 68.2597 40.7409 68.5696 39.7713C68.8783 38.8007 69.9162 38.2644 70.8879 38.5743C71.578 38.7931 72.0482 39.3792 72.1532 40.0476C72.1532 40.0476 72.1717 40.1689 72.2258 40.365C72.28 40.56 72.371 40.8265 72.5064 41.1244C72.5747 41.2728 72.6527 41.4299 72.7426 41.5913C72.8314 41.7517 72.9311 41.9163 73.0394 42.0832C73.1499 42.2457 73.2647 42.4158 73.3926 42.5783C73.5193 42.7408 73.6537 42.9022 73.7934 43.0582C73.9321 43.2163 74.0794 43.3658 74.2224 43.5143C74.3719 43.6583 74.5182 43.8003 74.6687 43.9303C74.8182 44.0613 74.9656 44.1859 75.1129 44.2964C75.257 44.4102 75.4011 44.512 75.5365 44.6019C75.8073 44.785 76.0522 44.9204 76.2298 45.0093C76.4097 45.0959 76.5223 45.1382 76.5223 45.1382C77.4475 45.487 77.9144 46.5173 77.5667 47.4413C77.2178 48.3654 76.1843 48.8313 75.2592 48.4835C74.6687 48.2614 74.2625 47.7501 74.1379 47.177Z" fill="black"/>
<path d="M59.5422 31.9172C59.5422 31.9172 59.5173 31.8002 59.4588 31.6095C59.3981 31.4199 59.3006 31.1578 59.1619 30.862C59.0926 30.7147 59.0146 30.5576 58.9247 30.3973C58.8369 30.2358 58.7373 30.0701 58.6311 29.9033C58.5249 29.7353 58.4068 29.5685 58.2877 29.4006C58.1609 29.2359 58.0363 29.0669 57.9009 28.9066C57.7677 28.7452 57.629 28.587 57.4871 28.4375C57.3463 28.2869 57.1957 28.1483 57.0516 28.0128C56.9032 27.8807 56.7558 27.7561 56.6107 27.6434C56.4644 27.5318 56.3203 27.4311 56.1849 27.3401C55.9108 27.1603 55.6606 27.0292 55.4753 26.9458C55.2901 26.8634 55.1731 26.8255 55.1731 26.8255C54.2003 26.5178 53.6629 25.4811 53.9728 24.5104C54.2815 23.5419 55.3204 23.0046 56.2922 23.3133C56.9812 23.5322 57.4513 24.1193 57.5564 24.7878C57.5564 24.7878 57.5748 24.9091 57.629 25.1052C57.6832 25.3002 57.7742 25.5667 57.9107 25.8646C57.9778 26.013 58.0569 26.1701 58.1458 26.3315C58.2346 26.4929 58.3353 26.6565 58.4426 26.8233C58.5542 26.9858 58.6679 27.1559 58.7968 27.3173C58.9236 27.4809 59.0568 27.6423 59.1966 27.7983C59.3353 27.9565 59.4837 28.1049 59.6267 28.2544C59.7751 28.3985 59.9213 28.5404 60.0719 28.6704C60.2214 28.8015 60.3688 28.9261 60.5161 29.0366C60.6602 29.1503 60.8043 29.2511 60.9397 29.3421C61.2105 29.5241 61.4553 29.6606 61.6341 29.7494C61.8139 29.8372 61.9255 29.8783 61.9255 29.8783C62.8518 30.2272 63.3187 31.2574 62.9698 32.1815C62.621 33.1056 61.5886 33.5725 60.6623 33.2237C60.073 33.0016 59.6657 32.4903 59.5422 31.9172Z" fill="black"/>
<path d="M73.541 26.2936C73.541 26.2936 73.4803 26.2828 73.3828 26.2817C73.2853 26.2806 73.151 26.2849 73.0015 26.3088C72.8509 26.3315 72.6841 26.3727 72.5162 26.4333C72.3472 26.4929 72.1771 26.572 72.0168 26.6684C71.8553 26.7605 71.7058 26.8721 71.5748 26.9934C71.4448 27.1148 71.3353 27.2469 71.2498 27.3748C71.1642 27.5004 71.1035 27.6218 71.0656 27.7171C71.0277 27.8081 71.0114 27.872 71.0114 27.872C70.8164 28.6769 70.005 29.172 69.1979 28.9781C68.3919 28.7831 67.8947 27.9728 68.0897 27.1678C68.2814 26.3716 69.0777 25.8798 69.8739 26.0542C69.8739 26.0542 69.9368 26.0683 70.0364 26.0726C70.1383 26.0813 70.2737 26.0791 70.4264 26.0585C70.577 26.0368 70.7438 25.9968 70.9107 25.9328C71.0764 25.8689 71.2433 25.7833 71.3971 25.6793C71.5542 25.5775 71.7004 25.4594 71.8272 25.3338C71.9561 25.2092 72.0655 25.0781 72.1522 24.9535C72.2399 24.8289 72.3028 24.7108 72.3428 24.622C72.3851 24.5343 72.4024 24.4758 72.4024 24.4758C72.6343 23.7293 73.4283 23.3112 74.1758 23.543C74.9233 23.7748 75.3415 24.5668 75.1108 25.3132C74.8995 25.9913 74.2235 26.3987 73.541 26.2936Z" fill="black"/>
<path d="M56.2813 54.964C56.2813 54.964 56.2337 55.003 56.1665 55.0723C56.0993 55.1428 56.0105 55.2446 55.9271 55.3703C55.8426 55.497 55.7603 55.6476 55.6909 55.8112C55.6194 55.9758 55.5631 56.1546 55.5263 56.3377C55.484 56.5186 55.4656 56.7038 55.4656 56.8826C55.4678 57.0592 55.4905 57.2303 55.5263 57.3788C55.562 57.5272 55.6097 57.6539 55.653 57.746C55.6942 57.8359 55.731 57.8901 55.731 57.8901C56.1925 58.5791 56.0073 59.5108 55.3172 59.9712C54.6271 60.4327 53.6933 60.2474 53.2328 59.5584C52.7768 58.8792 52.9523 57.9616 53.6207 57.4947C53.6207 57.4947 53.6738 57.4568 53.7453 57.3885C53.82 57.3192 53.911 57.2173 53.9977 57.0917C54.0854 56.966 54.1688 56.8165 54.2338 56.6508C54.2999 56.485 54.3498 56.3063 54.3768 56.121C54.4072 55.9379 54.4202 55.7516 54.4137 55.5728C54.4093 55.3941 54.3866 55.224 54.353 55.0756C54.3216 54.9272 54.2761 54.8004 54.2393 54.7116C54.2024 54.6217 54.171 54.5675 54.171 54.5675C53.7778 53.8926 54.0096 53.027 54.6867 52.6348C55.3627 52.2427 56.2304 52.4723 56.6237 53.1483C56.9801 53.7626 56.8219 54.535 56.2813 54.964Z" fill="black"/>
<path d="M58.331 21.0015C58.331 21.0015 58.318 20.9267 58.2812 20.8087C58.2465 20.6906 58.1891 20.527 58.1046 20.345C58.0201 20.163 57.9096 19.9615 57.7774 19.7578C57.6463 19.5542 57.4903 19.3505 57.3213 19.1587C57.1556 18.9637 56.9725 18.785 56.7862 18.6301C56.6009 18.4752 56.4102 18.3462 56.2347 18.2455C56.0603 18.1447 55.9011 18.0732 55.7808 18.0321C55.6638 17.9866 55.5869 17.9692 55.5869 17.9692C54.8752 17.8132 54.4245 17.1112 54.5805 16.4017C54.7376 15.691 55.4407 15.2414 56.1524 15.3974C56.7168 15.5209 57.1166 15.99 57.1794 16.5327C57.1794 16.5327 57.1892 16.6107 57.2217 16.7321C57.252 16.8545 57.3062 17.0213 57.3885 17.2044C57.4708 17.3897 57.5813 17.5912 57.7167 17.7916C57.8522 17.992 58.0114 18.1913 58.1891 18.3766C58.3635 18.5629 58.5509 18.7373 58.7405 18.889C58.929 19.0417 59.1197 19.1717 59.293 19.2736C59.4652 19.3765 59.6223 19.4491 59.7361 19.4967C59.852 19.5444 59.9246 19.565 59.9246 19.565C60.5973 19.7546 60.9895 20.4533 60.7999 21.1272C60.6092 21.7988 59.9083 22.1899 59.2345 22.0003C58.7513 21.8638 58.4133 21.4641 58.331 21.0015Z" fill="black"/>
<path d="M56.7927 38.675C56.7927 38.675 56.745 38.8342 56.6832 39.1127C56.6226 39.3911 56.55 39.7865 56.4926 40.261C56.4644 40.4972 56.4373 40.7539 56.4178 41.0237C56.3962 41.2945 56.3821 41.5794 56.3723 41.873C56.3615 42.1677 56.3626 42.471 56.3626 42.7797C56.3702 43.0874 56.3745 43.4005 56.394 43.7125C56.4059 44.0245 56.433 44.3365 56.4601 44.6431C56.4904 44.9497 56.5283 45.2508 56.5695 45.5412C56.615 45.8326 56.6637 46.1132 56.7179 46.3786C56.7721 46.6451 56.8306 46.8953 56.8912 47.1261C57.0104 47.5897 57.1404 47.9732 57.2433 48.2397C57.3473 48.5073 57.421 48.659 57.421 48.659C57.8348 49.5007 57.4871 50.5169 56.6442 50.9297C55.8014 51.3424 54.7842 50.9947 54.3703 50.154C54.1634 49.7347 54.1482 49.2667 54.288 48.8562C54.288 48.8562 54.3432 48.6958 54.4126 48.4174C54.4808 48.139 54.561 47.7425 54.6227 47.2691C54.652 47.0329 54.6791 46.7762 54.6997 46.5053C54.7213 46.2345 54.7332 45.9507 54.7419 45.656C54.7473 45.3624 54.7473 45.0591 54.7376 44.7514C54.7267 44.4437 54.7148 44.1307 54.6877 43.8197C54.6672 43.5077 54.6336 43.1957 54.6022 42.8902C54.5632 42.5837 54.5263 42.2825 54.4787 41.9922C54.4321 41.7018 54.3822 41.4202 54.3259 41.1547C54.2739 40.8893 54.2154 40.638 54.1569 40.4062C54.0399 39.9447 53.9186 39.5601 53.8243 39.2925C53.7279 39.0238 53.6597 38.8722 53.6597 38.8722C53.287 38.0282 53.6705 37.0424 54.5155 36.6708C55.3605 36.2992 56.3474 36.6817 56.7212 37.5245C56.8869 37.9026 56.9021 38.3088 56.7927 38.675Z" fill="black"/>
<path d="M66.6358 46.995C66.6358 46.995 66.6196 46.8596 66.573 46.6353C66.5253 46.4111 66.4441 46.098 66.3217 45.7383C66.261 45.5585 66.1927 45.3657 66.1104 45.1663C66.0313 44.9659 65.9403 44.759 65.8417 44.5488C65.7442 44.3365 65.6337 44.1242 65.5211 43.9075C65.403 43.6952 65.2849 43.4785 65.156 43.2683C65.0292 43.056 64.896 42.848 64.7584 42.6476C64.623 42.4461 64.4767 42.2554 64.3359 42.0702C64.1907 41.8893 64.0467 41.7148 63.9026 41.5545C63.7585 41.3953 63.6166 41.2479 63.4801 41.1147C63.2071 40.8482 62.9547 40.6413 62.7683 40.5048C62.5798 40.3672 62.4596 40.2968 62.4596 40.2968C61.6135 39.8017 61.3297 38.7173 61.8247 37.8733C62.3209 37.0294 63.4064 36.7456 64.2525 37.2407C64.7725 37.5451 65.0802 38.0835 65.1246 38.6403C65.1246 38.6403 65.1343 38.779 65.1755 39.0087C65.2156 39.2362 65.2914 39.5536 65.4095 39.9154C65.4691 40.0963 65.5384 40.2892 65.6186 40.4896C65.6987 40.6889 65.7919 40.8948 65.8916 41.1049C65.9956 41.3129 66.1017 41.5274 66.2231 41.7376C66.3433 41.9499 66.4701 42.1612 66.6044 42.3681C66.7377 42.5761 66.8807 42.7776 67.0182 42.9769C67.1634 43.173 67.3053 43.3658 67.4527 43.5468C67.5989 43.7288 67.7441 43.9021 67.8903 44.0603C68.0322 44.2217 68.1752 44.3701 68.3107 44.5033C68.5804 44.772 68.8242 44.9822 69.0062 45.1241C69.1871 45.2649 69.3008 45.3397 69.3008 45.3397C70.1025 45.8608 70.3289 46.9322 69.8067 47.7317C69.2846 48.5323 68.2121 48.7576 67.4093 48.2365C66.9662 47.9483 66.6976 47.4825 66.6358 46.995Z" fill="black"/>
<path d="M73.0221 52.5893C73.0221 52.5893 72.9072 52.6229 72.7231 52.6977C72.5389 52.7746 72.2865 52.8938 72.0048 53.0563C71.864 53.1375 71.7145 53.2285 71.5628 53.3325C71.409 53.4322 71.2541 53.5459 71.097 53.6662C70.9388 53.7853 70.7839 53.9164 70.6268 54.0508C70.4741 54.1894 70.317 54.3281 70.1686 54.4754C70.0202 54.6217 69.8761 54.7733 69.7385 54.9272C69.6009 55.0799 69.4763 55.2413 69.355 55.3963C69.2369 55.5555 69.1253 55.7115 69.0267 55.8653C68.9282 56.0203 68.8393 56.1708 68.7624 56.3149C68.6075 56.602 68.5002 56.862 68.4331 57.0527C68.367 57.2433 68.3399 57.3636 68.3399 57.3636C68.1189 58.3581 67.132 58.9853 66.1364 58.7643C65.1387 58.5433 64.5114 57.5586 64.7324 56.563C64.8895 55.8556 65.4366 55.3345 66.0963 55.1709C66.0963 55.1709 66.2166 55.1417 66.4062 55.0723C66.5957 55.0019 66.8536 54.8882 67.1374 54.7278C67.2793 54.6477 67.4299 54.5556 67.5827 54.4548C67.7343 54.3519 67.8892 54.2393 68.0452 54.1168C68.198 53.9923 68.3562 53.8644 68.5067 53.7236C68.6573 53.5838 68.8057 53.4365 68.9498 53.2848C69.0939 53.1343 69.2304 52.975 69.3658 52.819C69.4958 52.6587 69.6247 52.5016 69.7407 52.3413C69.8577 52.182 69.9682 52.0238 70.0657 51.8689C70.1653 51.7151 70.2542 51.5645 70.3322 51.4215C70.4892 51.1366 70.603 50.8831 70.6745 50.6978C70.746 50.5126 70.7785 50.3967 70.7785 50.3967C71.0439 49.4455 72.0319 48.8876 72.9852 49.1519C73.9386 49.4173 74.4965 50.4032 74.2311 51.3554C74.0621 51.9643 73.5854 52.4149 73.0221 52.5893Z" fill="black"/>
<path d="M61.4824 52.6803C61.4824 52.6803 61.5073 52.5547 61.5301 52.3423C61.5507 52.13 61.5658 51.831 61.5561 51.4789C61.5517 51.3034 61.5431 51.1149 61.5236 50.9177C61.5084 50.7184 61.4824 50.5126 61.451 50.3002C61.4217 50.0868 61.3784 49.8702 61.3362 49.6502C61.2863 49.4325 61.2387 49.2093 61.1791 48.9905C61.1206 48.7717 61.0556 48.5528 60.9841 48.3405C60.9147 48.1292 60.8324 47.9234 60.7533 47.7241C60.6688 47.5269 60.5833 47.3373 60.4944 47.1597C60.4045 46.9831 60.3124 46.8162 60.2225 46.6657C60.0416 46.3623 59.8639 46.1175 59.7263 45.9507C59.5887 45.7827 59.4956 45.6917 59.4956 45.6917C58.7827 44.9941 58.7708 43.8512 59.4685 43.1394C60.1672 42.4277 61.3123 42.4157 62.0262 43.1123C62.4986 43.576 62.6622 44.2368 62.5148 44.8359C62.5148 44.8359 62.4834 44.9627 62.4542 45.1772C62.4271 45.3917 62.4032 45.6928 62.4087 46.046C62.413 46.2215 62.4217 46.4111 62.439 46.6093C62.4563 46.8065 62.4834 47.0134 62.5148 47.2257C62.5527 47.4359 62.5907 47.6537 62.6437 47.8714C62.6947 48.0892 62.7532 48.308 62.8192 48.5257C62.8842 48.7424 62.9601 48.958 63.0327 49.1692C63.1128 49.3783 63.1897 49.5852 63.2764 49.7824C63.362 49.9796 63.4487 50.1692 63.5397 50.3457C63.6274 50.5234 63.7195 50.6892 63.8083 50.8408C63.9849 51.1452 64.1561 51.3922 64.2861 51.5612C64.4161 51.7313 64.5027 51.8245 64.5027 51.8245C65.1614 52.5373 65.1181 53.6488 64.4031 54.3064C63.6902 54.964 62.5755 54.9196 61.9168 54.2078C61.5247 53.7832 61.3838 53.2079 61.4824 52.6803Z" fill="black"/>
<path d="M62.452 60.619C62.452 60.619 62.3783 60.6244 62.257 60.6472C62.1357 60.6699 61.9667 60.7089 61.7738 60.7717C61.581 60.8335 61.3632 60.918 61.139 61.022C60.9158 61.126 60.6851 61.2506 60.4641 61.3892C60.3514 61.4564 60.2442 61.5312 60.1391 61.6037C60.034 61.6785 59.9332 61.7576 59.839 61.8345C59.6483 61.9927 59.4815 62.1552 59.3472 62.3068C59.2117 62.4585 59.1077 62.5982 59.0406 62.7055C58.9712 62.8084 58.9377 62.8767 58.9377 62.8767C58.6733 63.4216 58.0168 63.6502 57.4708 63.3858C56.9248 63.1226 56.6962 62.4672 56.9606 61.9222C57.1458 61.5398 57.525 61.3145 57.9237 61.3037C57.9237 61.3037 57.9995 61.3026 58.123 61.2809C58.2476 61.2647 58.4177 61.2278 58.6116 61.1672C58.8066 61.1087 59.0243 61.0242 59.2464 60.9169C59.3569 60.8627 59.4696 60.8032 59.5812 60.7392C59.6917 60.6742 59.8032 60.6071 59.9116 60.5323C60.1293 60.3893 60.3384 60.2312 60.5269 60.0708C60.7143 59.9105 60.8812 59.748 61.0177 59.5985C61.1542 59.449 61.2592 59.3114 61.3307 59.2107C61.4022 59.1099 61.438 59.046 61.438 59.046C61.7229 58.5325 62.3697 58.3472 62.8842 58.6311C63.3977 58.9149 63.583 59.5617 63.2992 60.0752C63.1204 60.3958 62.7932 60.5887 62.452 60.619Z" fill="black"/>
<path d="M76.5483 35.4315C76.5483 35.4315 76.4151 35.3784 76.1811 35.3091C75.9492 35.2397 75.6167 35.1563 75.2191 35.0848C75.0197 35.0491 74.8052 35.0133 74.5777 34.9862C74.3502 34.957 74.1108 34.9342 73.8627 34.9158C73.6157 34.8963 73.3601 34.8877 73.1012 34.8779C72.8422 34.8768 72.5779 34.8725 72.3157 34.8822C72.0525 34.8855 71.7892 34.9039 71.5314 34.9212C71.2725 34.9418 71.0201 34.97 70.7731 35.0036C70.5282 35.0404 70.2921 35.0805 70.0667 35.126C69.8425 35.1726 69.6312 35.2235 69.4352 35.2766C69.0441 35.3817 68.7202 35.4997 68.4937 35.594C68.2673 35.6893 68.1384 35.7597 68.1384 35.7597C67.288 36.2202 66.2263 35.9071 65.7637 35.0588C65.3022 34.2106 65.6153 33.15 66.4657 32.6885C66.9597 32.4198 67.5372 32.4177 68.016 32.6278C68.016 32.6278 68.1492 32.6885 68.3832 32.7654C68.6162 32.8423 68.9487 32.9333 69.3463 33.0092C69.5457 33.046 69.7612 33.0807 69.9877 33.1099C70.2152 33.1381 70.4546 33.1597 70.7016 33.1771C70.9497 33.1901 71.2053 33.1998 71.4642 33.1998C71.7232 33.1977 71.9853 33.1944 72.2486 33.1771C72.5118 33.1662 72.774 33.1413 73.0318 33.1197C73.2897 33.0893 73.5432 33.0612 73.7891 33.0232C74.0339 32.9853 74.2712 32.9442 74.4954 32.8965C74.7197 32.8521 74.932 32.8012 75.127 32.7492C75.5181 32.6473 75.8431 32.5379 76.0695 32.4512C76.297 32.3624 76.4259 32.2996 76.4259 32.2996C77.2774 31.8879 78.3022 32.2422 78.7161 33.0915C79.1288 33.9419 78.7735 34.9646 77.9231 35.3773C77.4767 35.594 76.9773 35.5972 76.5483 35.4315Z" fill="black"/>
<path d="M63.3382 28.0659C63.3382 28.0659 63.3956 27.9283 63.4758 27.6878C63.5538 27.4473 63.6502 27.1028 63.7379 26.6901C63.7813 26.4842 63.8235 26.26 63.8603 26.0238C63.8993 25.7877 63.9308 25.5385 63.9589 25.2807C63.9893 25.0217 64.0066 24.7563 64.0261 24.4855C64.038 24.2136 64.0532 23.9384 64.0543 23.6643C64.0597 23.3892 64.0532 23.1129 64.0456 22.8432C64.0348 22.5723 64.0153 22.3058 63.9925 22.048C63.9654 21.7902 63.934 21.5399 63.8972 21.3037C63.8593 21.0676 63.817 20.8444 63.7715 20.6375C63.6805 20.2247 63.5765 19.8813 63.4898 19.6397C63.4032 19.3992 63.3382 19.2617 63.3382 19.2617C62.9298 18.3961 63.3013 17.3637 64.168 16.9563C65.0347 16.5479 66.0693 16.9184 66.4777 17.784C66.7063 18.2682 66.6878 18.8121 66.4777 19.2617C66.4777 19.2617 66.4127 19.3992 66.326 19.6397C66.2404 19.8813 66.1353 20.2247 66.0443 20.6375C65.9999 20.8444 65.9566 21.0676 65.9187 21.3037C65.8808 21.5399 65.8504 21.7902 65.8244 22.048C65.8006 22.3058 65.7811 22.5723 65.7713 22.8432C65.7627 23.1129 65.7551 23.3892 65.7627 23.6643C65.7638 23.9384 65.7789 24.2136 65.7898 24.4855C65.8093 24.7563 65.8277 25.0217 65.8569 25.2807C65.8851 25.5385 65.9165 25.7877 65.9555 26.0238C65.9913 26.26 66.0346 26.4842 66.079 26.6901C66.1657 27.1028 66.2621 27.4473 66.3412 27.6878C66.4203 27.9283 66.4777 28.0659 66.4777 28.0659C66.8406 28.9315 66.4311 29.926 65.5644 30.2878C64.6978 30.6497 63.7 30.2412 63.3382 29.3757C63.1562 28.9412 63.1713 28.4689 63.3382 28.0659Z" fill="black"/>
<path d="M73.45 38.7736C73.45 39.8103 74.2918 40.6499 75.3307 40.6499C76.3685 40.6499 77.2103 39.8103 77.2103 38.7736C77.2103 37.7368 76.3685 36.8962 75.3307 36.8962C74.2918 36.8962 73.45 37.7368 73.45 38.7736Z" fill="black"/>
<path d="M59.1251 16.0301C59.1251 17.0668 59.9668 17.9075 61.0058 17.9075C62.0447 17.9075 62.8853 17.0668 62.8853 16.0301C62.8853 14.9933 62.0447 14.1537 61.0058 14.1537C59.9668 14.1537 59.1251 14.9933 59.1251 16.0301Z" fill="black"/>
<path d="M71.7481 29.5999C71.7481 30.6356 72.5898 31.4763 73.6287 31.4763C74.6677 31.4763 75.5094 30.6356 75.5094 29.5999C75.5094 28.5621 74.6677 27.7225 73.6287 27.7225C72.5898 27.7225 71.7481 28.5621 71.7481 29.5999Z" fill="black"/>
<path d="M57.8532 55.8155C57.8532 56.8522 58.6939 57.6918 59.7328 57.6918C60.7717 57.6918 61.6135 56.8522 61.6135 55.8155C61.6135 54.7787 60.7717 53.9381 59.7328 53.9381C58.6939 53.9381 57.8532 54.7787 57.8532 55.8155Z" fill="black"/>
<path d="M54.2902 30.8479C54.2902 31.8847 54.5014 33.3537 55.5403 33.3537C56.5792 33.3537 57.421 32.513 57.421 31.4762C57.421 30.4395 56.5792 29.5999 55.5403 29.5999C54.5014 29.5999 54.2902 29.8112 54.2902 30.8479Z" fill="black"/>
<path d="M65.3532 51.5808C65.3532 52.1658 65.8277 52.6403 66.4138 52.6403C66.9988 52.6403 67.4743 52.1658 67.4743 51.5808C67.4743 50.9968 66.9988 50.5223 66.4138 50.5223C65.8277 50.5223 65.3532 50.9968 65.3532 51.5808Z" fill="black"/>
<path d="M76.4833 43.6117C76.4833 44.1967 76.9578 44.6702 77.5439 44.6702C78.13 44.6702 78.6045 44.1967 78.6045 43.6117C78.6045 43.0278 78.13 42.5533 77.5439 42.5533C76.9578 42.5533 76.4833 43.0278 76.4833 43.6117Z" fill="black"/>
<path d="M70.8402 55.8155C70.8402 56.4005 71.3147 56.8739 71.8997 56.8739C72.4858 56.8739 72.9603 56.4005 72.9603 55.8155C72.9603 55.2316 72.4858 54.7571 71.8997 54.7571C71.3147 54.7571 70.8402 55.2316 70.8402 55.8155Z" fill="black"/>
<path d="M63.5678 47.0394C63.5678 47.6244 64.0434 48.0978 64.6284 48.0978C65.2145 48.0978 65.689 47.6244 65.689 47.0394C65.689 46.4555 65.2145 45.981 64.6284 45.981C64.0434 45.981 63.5678 46.4555 63.5678 47.0394Z" fill="black"/>
<path d="M68.4992 31.4763C68.4992 32.0613 68.9737 32.5347 69.5598 32.5347C70.1458 32.5347 70.6203 32.0613 70.6203 31.4763C70.6203 30.8913 70.1458 30.4178 69.5598 30.4178C68.9737 30.4178 68.4992 30.8913 68.4992 31.4763Z" fill="black"/>
<path d="M68.4992 23.6199C68.4992 24.2049 68.9737 24.6783 69.5598 24.6783C70.1458 24.6783 70.6203 24.2049 70.6203 23.6199C70.6203 23.0349 70.1458 22.5615 69.5598 22.5615C68.9737 22.5615 68.4992 23.0349 68.4992 23.6199Z" fill="black"/>
<path d="M68.1731 19.9539C68.1731 20.5378 68.6487 21.0123 69.2337 21.0123C69.8198 21.0123 70.2943 20.5378 70.2943 19.9539C70.2943 19.3689 69.8198 18.8955 69.2337 18.8955C68.6487 18.8955 68.1731 19.3689 68.1731 19.9539Z" fill="black"/>
<path d="M59.6732 25.8072C59.6732 26.3911 60.1477 26.8656 60.7338 26.8656C61.3188 26.8656 61.7944 26.3911 61.7944 25.8072C61.7944 25.2222 61.3188 24.7477 60.7338 24.7477C60.1477 24.7477 59.6732 25.2222 59.6732 25.8072Z" fill="black"/>
<path d="M60.9386 22.9201C60.9386 23.5051 61.4131 23.9785 61.9992 23.9785C62.5842 23.9785 63.0598 23.5051 63.0598 22.9201C63.0598 22.3362 62.5842 21.8617 61.9992 21.8617C61.4131 21.8617 60.9386 22.3362 60.9386 22.9201Z" fill="black"/>
<path d="M63.8474 61.3633C63.8474 61.9483 64.3229 62.4217 64.9079 62.4217C65.494 62.4217 65.9685 61.9483 65.9685 61.3633C65.9685 60.7783 65.494 60.3048 64.9079 60.3048C64.3229 60.3048 63.8474 60.7783 63.8474 61.3633Z" fill="black"/>
<path d="M57.6127 39.468C57.6127 40.053 58.0872 40.5275 58.6722 40.5275C59.2572 40.5275 59.7328 40.053 59.7328 39.468C59.7328 38.8841 59.2572 38.4096 58.6722 38.4096C58.0872 38.4096 57.6127 38.8841 57.6127 39.468Z" fill="black"/>
<path d="M58.6722 35.7121C58.6722 36.2971 59.1467 36.7705 59.7328 36.7705C60.3178 36.7705 60.7934 36.2971 60.7934 35.7121C60.7934 35.1271 60.3178 34.6537 59.7328 34.6537C59.1467 34.6537 58.6722 35.1271 58.6722 35.7121Z" fill="black"/>
<path d="M12.8191 81.1802C14.8449 81.1802 16.0897 80.2161 16.0897 78.6052C16.0897 77.251 15.1981 76.4461 13.0758 75.9456C11.7704 75.6401 11.3187 75.3107 11.3187 74.7864C11.3187 74.2252 11.8192 73.884 12.636 73.884C13.5265 73.884 14.0638 74.3477 14.0638 75.1157H15.9304C15.9304 73.3954 14.6369 72.2969 12.6122 72.2969C10.647 72.2969 9.42717 73.2611 9.42717 74.8232C9.42717 76.2142 10.3664 77.0441 12.3673 77.4709C13.5753 77.7266 14.1245 78.0808 14.1245 78.6788C14.1245 79.2519 13.6121 79.5812 12.8072 79.5812C11.8679 79.5812 11.258 79.1057 11.258 78.2877H9.35458C9.35458 80.0579 10.6719 81.1802 12.8191 81.1802Z" fill="black"/>
<path d="M21.152 81.1802C23.3729 81.1802 24.727 79.7892 24.727 77.4947V72.4681H22.7868V77.3604C22.7868 78.6669 22.2386 79.3375 21.152 79.3375C20.0665 79.3375 19.5173 78.6669 19.5173 77.3604V72.4681H17.577V77.4947C17.577 79.7892 18.9312 81.1802 21.152 81.1802Z" fill="black"/>
<path d="M26.6909 81.0091H28.6312V78.6301H30.0341C32.0957 78.6301 33.426 77.4222 33.426 75.5556C33.426 73.676 32.0957 72.4681 30.0341 72.4681H26.6909V81.0091ZM28.6193 76.9585V74.1646H29.8759C30.8878 74.1646 31.45 74.677 31.45 75.5675C31.45 76.458 30.8878 76.9585 29.8759 76.9585H28.6193Z" fill="black"/>
<path d="M34.8043 81.0091H40.5514V79.3624H36.7326V77.4947H40.0877V75.8719H36.7326V74.1028H40.417V72.4681H34.8043V81.0091Z" fill="black"/>
<path d="M42.1978 81.0091H44.138V78.3495H45.4185L46.9439 81.0091H49.1896L47.4205 78.044C48.4454 77.5922 49.0423 76.6649 49.0423 75.4082C49.0423 73.5904 47.7986 72.4681 45.8465 72.4681H42.1978V81.0091ZM44.1131 76.7147V74.1277H45.5897C46.542 74.1277 47.0782 74.5914 47.0782 75.4212C47.0782 76.2511 46.542 76.7147 45.5897 76.7147H44.1131Z" fill="black"/>
<path d="M56.6311 81.1802C58.6569 81.1802 59.9016 80.2161 59.9016 78.6052C59.9016 77.251 59.0101 76.4461 56.8878 75.9456C55.5824 75.6401 55.1306 75.3107 55.1306 74.7864C55.1306 74.2252 55.6311 73.884 56.448 73.884C57.3385 73.884 57.8758 74.3477 57.8758 75.1157H59.7424C59.7424 73.3954 58.4489 72.2969 56.4241 72.2969C54.459 72.2969 53.2391 73.2611 53.2391 74.8232C53.2391 76.2142 54.1784 77.0441 56.1793 77.4709C57.3872 77.7266 57.9365 78.0808 57.9365 78.6788C57.9365 79.2519 57.4241 79.5812 56.6191 79.5812C55.6799 79.5812 55.07 79.1057 55.07 78.2877H53.1666C53.1666 80.0579 54.4839 81.1802 56.6311 81.1802Z" fill="black"/>
<path d="M61.4746 81.0091H63.4148V77.5565H64.4397C64.5978 77.5565 64.7322 77.5565 64.8784 77.5435L66.7092 81.0091H68.9658L66.6605 76.8242C67.0017 76.4948 67.2585 76.068 67.4773 75.5068L68.6614 72.4681H66.563L65.757 74.6889C65.4645 75.4938 65.1102 75.7506 64.1472 75.7506H63.4148V72.4681H61.4746V81.0091Z" fill="black"/>
<path d="M70.3443 81.0091H72.2846V72.4681H70.3443V81.0091Z" fill="black"/>
<path d="M74.3339 81.0091H80.0073V79.1912H76.2741V72.4681H74.3339V81.0091Z" fill="black"/>
<path d="M81.3614 81.0091H87.0348V79.1912H83.3016V72.4681H81.3614V81.0091Z" fill="black"/>
<path d="M91.3659 81.1802C93.3917 81.1802 94.6365 80.2161 94.6365 78.6052C94.6365 77.251 93.7449 76.4461 91.6226 75.9456C90.3172 75.6401 89.8655 75.3107 89.8655 74.7864C89.8655 74.2252 90.366 73.884 91.1828 73.884C92.0733 73.884 92.6106 74.3477 92.6106 75.1157H94.4772C94.4772 73.3954 93.1837 72.2969 91.159 72.2969C89.1938 72.2969 87.974 73.2611 87.974 74.8232C87.974 76.2142 88.9132 77.0441 90.9141 77.4709C92.122 77.7266 92.6713 78.0808 92.6713 78.6788C92.6713 79.2519 92.1589 79.5812 91.354 79.5812C90.4147 79.5812 89.8048 79.1057 89.8048 78.2877H87.9014C87.9014 80.0579 89.2187 81.1802 91.3659 81.1802Z" fill="black"/>
</svg>
