<svg width="17" height="13" viewBox="0 0 17 13" fill="none" xmlns="http://www.w3.org/2000/svg">
<path d="M12.8887 6.60323C12.8887 6.60323 12.7464 6.57781 12.5176 6.57527C12.2889 6.57273 11.9737 6.5829 11.623 6.63881C11.2697 6.69219 10.8783 6.78877 10.4843 6.9311C10.0878 7.07089 9.68882 7.25642 9.31266 7.48263C8.93396 7.69866 8.58322 7.96045 8.27568 8.24511C7.97069 8.52977 7.71399 8.83985 7.5132 9.13976C7.31241 9.43458 7.17008 9.71924 7.08113 9.9429C6.99217 10.1564 6.95405 10.3064 6.95405 10.3064C6.49656 12.1948 4.59289 13.3563 2.69939 12.9013C0.808435 12.4438 -0.358163 10.5427 0.0993263 8.65431C0.549191 6.78623 2.41727 5.63234 4.28536 6.04154C4.28536 6.04154 4.43277 6.07458 4.6666 6.08474C4.90551 6.10508 5.22321 6.09999 5.58158 6.0517C5.93486 6.00087 6.32627 5.90683 6.71768 5.75688C7.10654 5.60692 7.49795 5.40613 7.85886 5.16214C8.22739 4.92323 8.57051 4.64619 8.86788 4.35137C9.17033 4.05908 9.42703 3.75155 9.63036 3.45926C9.83623 3.16698 9.98364 2.88994 10.0777 2.68153C10.1768 2.47566 10.2175 2.33841 10.2175 2.33841C10.7614 0.587244 12.6244 -0.393817 14.3781 0.150087C16.1318 0.693991 17.1129 2.55191 16.5715 4.30307C16.0759 5.89412 14.4899 6.84977 12.8887 6.60323Z" fill="black"/>
</svg>
