<svg width="21" height="23" viewBox="0 0 21 23" fill="none" xmlns="http://www.w3.org/2000/svg">
<path d="M2.63905 15.1292C2.63905 15.1292 2.89283 15.0331 3.30184 14.8336C3.70838 14.634 4.26276 14.3235 4.87874 13.9096C5.18919 13.7026 5.51443 13.471 5.84459 13.2148C6.17969 12.961 6.51478 12.6801 6.8548 12.382C7.19482 12.0863 7.52744 11.7635 7.86746 11.4358C8.1927 11.0958 8.53025 10.7558 8.84564 10.3985C9.16348 10.0413 9.46654 9.67661 9.75482 9.30456C10.048 8.93744 10.3067 8.5506 10.5605 8.18102C10.8044 7.80157 11.0336 7.42706 11.2356 7.05994C11.4352 6.69528 11.6151 6.33555 11.7703 6.00046C12.0807 5.32288 12.2877 4.7143 12.4109 4.27079C12.5316 3.82729 12.576 3.54887 12.576 3.54887C12.9308 1.26236 15.0769 -0.304687 17.3683 0.0501158C19.6597 0.404919 21.2292 2.54606 20.8744 4.83503C20.6231 6.45628 19.4626 7.7178 17.9966 8.18594C17.9966 8.18594 17.7305 8.26972 17.3092 8.45944C16.8878 8.64916 16.3187 8.94729 15.6953 9.3563C15.3873 9.5608 15.0596 9.79241 14.727 10.0462C14.3968 10.3024 14.0617 10.5833 13.7242 10.8864C13.394 11.1919 13.054 11.5073 12.7337 11.8522C12.4109 12.1923 12.0955 12.5495 11.79 12.9166C11.4845 13.2838 11.1987 13.6681 10.9129 14.0402C10.6418 14.4246 10.3733 14.804 10.1318 15.1859C9.89033 15.5654 9.66119 15.9399 9.46161 16.3095C9.25711 16.6741 9.07971 17.0314 8.92448 17.3665C8.60664 18.0391 8.38735 18.6354 8.24937 19.0641C8.11632 19.5002 8.05965 19.7663 8.05965 19.7663C7.5989 21.9641 5.44051 23.3735 3.24024 22.9127C1.03751 22.452 -0.371848 20.2985 0.0864388 18.1007C0.379644 16.6987 1.39231 15.6097 2.63905 15.1292Z" fill="#FF3131"/>
</svg>
