<svg width="49" height="49" viewBox="0 0 49 49" fill="none" xmlns="http://www.w3.org/2000/svg">
<path d="M15.8737 8.1874C18.1358 8.1874 19.9678 6.35383 19.9678 4.09418C19.9678 1.83195 18.1358 0 15.8737 0C13.6117 0 11.7797 1.83195 11.7797 4.09408C11.7797 6.35383 13.6117 8.1874 15.8737 8.1874Z" fill="black"/>
<path d="M21.2519 9.34293H10.4956C8.5121 9.34293 6.35419 11.5008 6.35419 13.4851V27.2442C6.35419 28.236 7.15771 29.0403 8.14939 29.0403C9.14116 29.0403 9.94621 28.236 9.94621 27.2442V15.9316H10.7741V46.6408C10.7741 47.9439 11.8302 49 13.1326 49C14.4366 49 15.4927 47.9439 15.4927 46.6408V28.8199H16.2549V46.6408C16.2549 47.9439 17.311 49 18.6149 49C19.9173 49 20.9734 47.9439 20.9734 46.6408V15.9316H21.803V27.2441C21.803 28.2359 22.6065 29.0402 23.5982 29.0402C24.5915 29.0402 25.3935 28.2359 25.3935 27.2441V13.4851C25.3934 11.5008 23.2355 9.34293 21.2519 9.34293Z" fill="black"/>
<path d="M35.7011 24.5689C37.5392 24.5689 39.0276 23.079 39.0276 21.2431C39.0276 19.405 37.5392 17.9166 35.7011 17.9166C33.8631 17.9166 32.3747 19.405 32.3747 21.2431C32.3747 23.079 33.8631 24.5689 35.7011 24.5689Z" fill="black"/>
<path d="M39.5243 26.6167H31.4166C29.9221 26.6167 28.2951 28.2429 28.2951 29.7389V36.9627C28.2951 37.7104 28.9012 38.3165 29.6481 38.3165C30.3957 38.3165 31.0025 37.7104 31.0025 36.9627V31.5831H31.627V47.2216C31.627 48.2042 32.4229 49 33.4038 49C34.3872 49 35.1831 48.2041 35.1831 47.2216V38.1504H35.7578V47.2216C35.7578 48.2042 36.5537 49 37.5362 49C38.518 49 39.3146 48.2041 39.3146 47.2216V31.5831H39.939V36.9627C39.939 37.7104 40.545 38.3165 41.292 38.3165C42.0411 38.3165 42.6456 37.7104 42.6456 36.9627V29.7389C42.6458 28.2428 41.0197 26.6167 39.5243 26.6167Z" fill="black"/>
</svg>
