<svg width="16" height="20" viewBox="0 0 16 20" fill="none" xmlns="http://www.w3.org/2000/svg">
<path d="M7.8 20C12.361 20 15.1634 17.8293 15.1634 14.2024C15.1634 11.1537 13.1561 9.34146 8.37805 8.21463C5.43902 7.52683 4.42195 6.78536 4.42195 5.60488C4.42195 4.34146 5.54878 3.57317 7.3878 3.57317C9.39268 3.57317 10.6024 4.61707 10.6024 6.34634H14.8049C14.8049 2.47317 11.8927 0 7.33415 0C2.90976 0 0.163415 2.17073 0.163415 5.6878C0.163415 8.81951 2.27805 10.6878 6.78293 11.6488C9.50244 12.2244 10.739 13.0219 10.739 14.3683C10.739 15.6585 9.58536 16.4 7.77317 16.4C5.65854 16.4 4.28537 15.3293 4.28537 13.4878H0C0 17.4732 2.96585 20 7.8 20Z" fill="black"/>
</svg>
