<svg width="31" height="31" viewBox="0 0 31 31" fill="none" xmlns="http://www.w3.org/2000/svg">
<path d="M24.1115 11.1949C24.1118 9.49161 23.6069 7.82653 22.6608 6.4102C21.7147 4.99387 20.3699 3.88991 18.7964 3.23792C17.2228 2.58594 15.4913 2.41521 13.8207 2.74735C12.1502 3.07948 10.6156 3.89955 9.41115 5.10384C8.20668 6.30813 7.38638 7.84256 7.05399 9.51307C6.72161 11.1836 6.89207 12.9151 7.54382 14.4888C8.19557 16.0624 9.29933 17.4074 10.7155 18.3537C12.1317 19.3 13.7967 19.8051 15.5 19.8051C17.7837 19.8051 19.9739 18.898 21.5888 17.2833C23.2037 15.6686 24.1112 13.4786 24.1115 11.1949ZM15.5 13.7782C14.989 13.7782 14.4896 13.6267 14.0648 13.3428C13.6399 13.059 13.3088 12.6555 13.1133 12.1835C12.9178 11.7114 12.8666 11.192 12.9663 10.6909C13.066 10.1898 13.312 9.72946 13.6733 9.36818C14.0346 9.00689 14.4949 8.76085 14.996 8.66117C15.4971 8.56149 16.0165 8.61265 16.4886 8.80818C16.9606 9.00371 17.3641 9.33482 17.6479 9.75964C17.9318 10.1845 18.0833 10.6839 18.0833 11.1949C18.0833 11.88 17.8111 12.5371 17.3267 13.0216C16.8422 13.506 16.1851 13.7782 15.5 13.7782Z" fill="white"/>
<path d="M24.6566 17.6132C23.8016 18.8318 22.7121 19.8676 21.4519 20.66C20.1917 21.4525 18.7861 21.9856 17.3174 22.2283L21.9583 28.4167L22.6765 22.6765L28.4167 21.9583L24.6566 17.6132Z" fill="white"/>
<path d="M6.34335 17.6132L2.58331 21.9583L8.32348 22.6765L9.04165 28.4167L13.6826 22.2283C12.2139 21.9856 10.8083 21.4525 9.54808 20.66C8.28788 19.8676 7.19839 18.8318 6.34335 17.6132Z" fill="white"/>
</svg>
