<svg width="42" height="38" viewBox="0 0 42 38" fill="none" xmlns="http://www.w3.org/2000/svg">
<path d="M41.7422 19.3149C41.7422 17.7613 41.6001 16.6276 41.2926 15.4519H21.297V22.464H33.034C32.7974 24.2066 31.5196 26.8309 28.6799 28.5944L28.6401 28.8291L34.9624 33.1745L35.4004 33.2133C39.4231 29.9171 41.7422 25.0673 41.7422 19.3149Z" fill="white"/>
<path d="M21.297 37.79C27.0471 37.79 31.8744 36.1104 35.4004 33.2133L28.6799 28.5944C26.8816 29.7071 24.4678 30.4839 21.297 30.4839C15.6652 30.4839 10.8852 27.1878 9.18129 22.6321L8.93153 22.6509L2.35759 27.1647L2.27162 27.3767C5.77376 33.5491 12.9674 37.79 21.297 37.79Z" fill="white"/>
<path d="M9.18129 22.6321C8.7317 21.4564 8.4715 20.1967 8.4715 18.8951C8.4715 17.5933 8.7317 16.3337 9.15764 15.158L9.14573 14.9076L2.48941 10.3213L2.27163 10.4132C0.828227 12.9746 0 15.8509 0 18.8951C0 21.9393 0.828227 24.8154 2.27163 27.3768L9.18129 22.6321Z" fill="white"/>
<path d="M21.297 7.30603C25.2961 7.30603 27.9936 8.83862 29.5318 10.1194L35.5423 4.91271C31.8509 1.86852 27.0471 0 21.297 0C12.9674 0 5.77376 4.24085 2.27162 10.4132L9.15763 15.158C10.8852 10.6022 15.6652 7.30603 21.297 7.30603Z" fill="white"/>
</svg>
