<svg width="46" height="46" viewBox="0 0 46 46" fill="none" xmlns="http://www.w3.org/2000/svg">
<path d="M3.73749 10.7812H20.6425V7.1875H3.73749C2.78437 7.1875 1.87028 7.56613 1.19632 8.24009C0.522364 8.91404 0.143738 9.82813 0.143738 10.7812V35.2188C0.143738 36.1719 0.522364 37.086 1.19632 37.7599C1.87028 38.4339 2.78437 38.8125 3.73749 38.8125H20.6425V35.2188H3.73749V10.7812Z" fill="black"/>
<path d="M44.275 20.125L32.775 12.2475L30.7338 15.1225L39.5888 21.16H13.5413V24.7825H39.6175L30.7625 30.8487L32.8038 33.7237L44.275 25.875C44.7266 25.5439 45.0938 25.1111 45.347 24.6116C45.6001 24.1121 45.732 23.56 45.732 23C45.732 22.44 45.6001 21.8879 45.347 21.3884C45.0938 20.8889 44.7266 20.4561 44.275 20.125Z" fill="black"/>
</svg>
