<svg width="234" height="234" viewBox="0 0 234 234" fill="none" xmlns="http://www.w3.org/2000/svg">
<path d="M61.8296 100.147C61.8296 100.147 62.0807 100.052 62.4853 99.8546C62.8875 99.6572 63.4359 99.3501 64.0453 98.9406C64.3524 98.7358 64.6742 98.5067 65.0008 98.2532C65.3323 98.0021 65.6638 97.7243 66.0002 97.4293C66.3366 97.1368 66.6656 96.8175 67.002 96.4933C67.3238 96.1569 67.6577 95.8206 67.9697 95.4671C68.2841 95.1137 68.5839 94.7529 68.8691 94.3849C69.1592 94.0217 69.4151 93.639 69.6662 93.2734C69.9075 92.898 70.1342 92.5275 70.3341 92.1643C70.5315 91.8036 70.7094 91.4477 70.863 91.1162C71.1701 90.4459 71.3749 89.8438 71.4968 89.4051C71.6162 88.9663 71.6601 88.6909 71.6601 88.6909C72.0111 86.4289 74.1341 84.8786 76.401 85.2296C78.6679 85.5806 80.2206 87.6988 79.8696 89.9633C79.6209 91.5671 78.4729 92.8151 77.0226 93.2783C77.0226 93.2783 76.7593 93.3611 76.3425 93.5488C75.9257 93.7365 75.3626 94.0314 74.7459 94.4361C74.4413 94.6384 74.1171 94.8675 73.788 95.1186C73.4614 95.3721 73.1299 95.6499 72.7959 95.9498C72.4693 96.252 72.1329 96.564 71.8161 96.9053C71.4968 97.2416 71.1848 97.5951 70.8825 97.9583C70.5803 98.3214 70.2975 98.7017 70.0148 99.0698C69.7466 99.45 69.4809 99.8254 69.2421 100.203C69.0032 100.579 68.7765 100.949 68.5791 101.315C68.3768 101.675 68.2013 102.029 68.0477 102.36C67.7333 103.026 67.5163 103.616 67.3798 104.04C67.2482 104.471 67.1921 104.735 67.1921 104.735C66.7363 106.909 64.6011 108.303 62.4244 107.847C60.2453 107.391 58.851 105.261 59.3044 103.087C59.5944 101.7 60.5963 100.622 61.8296 100.147Z" fill="#FF3131"/>
<path d="M94.6725 65.8125C94.6725 65.8125 94.9236 65.7174 95.3282 65.52C95.7304 65.3226 96.2788 65.0154 96.8882 64.6059C97.1953 64.4012 97.5171 64.1721 97.8437 63.9186C98.1728 63.6675 98.5067 63.3896 98.8406 63.0947C99.1794 62.8022 99.5085 62.4829 99.8449 62.1587C100.167 61.8223 100.501 61.4859 100.813 61.1325C101.125 60.7791 101.427 60.4183 101.712 60.0503C102 59.6846 102.258 59.3044 102.509 58.9363C102.75 58.5609 102.977 58.1929 103.177 57.8297C103.374 57.4665 103.552 57.1155 103.706 56.7791C104.011 56.1088 104.218 55.5092 104.34 55.0704C104.459 54.6317 104.503 54.3587 104.503 54.3587C104.852 52.0943 106.977 50.544 109.244 50.895C111.511 51.246 113.063 53.3666 112.712 55.6286C112.464 57.2325 111.316 58.4805 109.865 58.9436C109.865 58.9436 109.602 59.0289 109.185 59.2166C108.769 59.4019 108.206 59.6968 107.589 60.1014C107.282 60.3038 106.96 60.5329 106.631 60.7839C106.302 61.0374 105.973 61.3178 105.639 61.6127C105.312 61.9174 104.976 62.2294 104.659 62.5706C104.34 62.907 104.025 63.2604 103.725 63.6236C103.423 63.9868 103.14 64.3646 102.858 64.7351C102.59 65.1154 102.324 65.4908 102.087 65.8686C101.846 66.2439 101.622 66.6144 101.422 66.9801C101.22 67.3384 101.044 67.6943 100.888 68.0282C100.576 68.6912 100.359 69.2786 100.223 69.7076C100.091 70.1366 100.035 70.3999 100.035 70.3999C99.5792 72.5741 97.4439 73.9659 95.2673 73.5126C93.0881 73.0568 91.6914 70.9264 92.1473 68.7521C92.4373 67.3652 93.4391 66.2854 94.6725 65.8125Z" fill="#FF3131"/>
<path d="M71.097 53.6567C71.097 53.6567 71.1384 53.7883 71.2311 53.9833C71.3237 54.1832 71.4651 54.4513 71.6601 54.7292C71.8575 55.0095 72.1037 55.3069 72.3913 55.5872C72.6789 55.8699 73.008 56.1332 73.359 56.3623C73.7076 56.5987 74.0805 56.7913 74.4559 56.9351C74.8288 57.0765 75.2042 57.1691 75.5455 57.2179C75.8867 57.2642 76.1938 57.2691 76.4205 57.2496C76.6448 57.2374 76.7886 57.2081 76.7886 57.2081C78.6118 56.8059 80.4156 57.9564 80.8178 59.7797C81.2199 61.6005 80.0646 63.3994 78.2413 63.8016C76.44 64.1964 74.6582 63.0752 74.2268 61.2958C74.2268 61.2958 74.1926 61.152 74.1049 60.9472C74.022 60.7352 73.8831 60.4622 73.693 60.177C73.5004 59.8894 73.2518 59.5944 72.9593 59.3214C72.6668 59.0484 72.3279 58.7949 71.9648 58.5877C71.604 58.3732 71.2238 58.1929 70.8435 58.0588C70.4657 57.9247 70.0903 57.8321 69.7515 57.7785C69.4151 57.7249 69.1104 57.7151 68.8911 57.7176C68.6741 57.7224 68.5376 57.7444 68.5376 57.7444C66.7973 58.0125 65.169 56.8206 64.9009 55.0826C64.6328 53.3422 65.8271 51.7189 67.5675 51.4532C69.1494 51.2094 70.6388 52.1722 71.097 53.6567Z" fill="#FF3131"/>
<path d="M112.12 121.366C112.12 121.366 112.049 121.483 111.967 121.685C111.881 121.89 111.781 122.175 111.708 122.506C111.635 122.84 111.584 123.223 111.572 123.623C111.56 124.025 111.586 124.447 111.657 124.861C111.718 125.273 111.83 125.68 111.976 126.05C112.125 126.423 112.313 126.76 112.51 127.042C112.705 127.325 112.91 127.552 113.078 127.708C113.236 127.864 113.356 127.949 113.356 127.949C114.889 129.014 115.262 131.12 114.194 132.649C113.122 134.177 111.014 134.55 109.485 133.482C107.972 132.429 107.589 130.362 108.61 128.839C108.61 128.839 108.691 128.717 108.783 128.515C108.883 128.31 108.993 128.022 109.071 127.686C109.151 127.352 109.202 126.969 109.207 126.57C109.207 126.17 109.166 125.753 109.071 125.344C108.988 124.934 108.861 124.532 108.7 124.164C108.544 123.793 108.357 123.454 108.169 123.172C107.979 122.884 107.781 122.657 107.63 122.499C107.479 122.341 107.369 122.253 107.369 122.253C105.995 121.158 105.77 119.155 106.867 117.78C107.967 116.408 109.973 116.181 111.35 117.28C112.6 118.275 112.9 120.022 112.12 121.366Z" fill="#FF3131"/>
<path d="M99.1745 42.6051C99.1745 42.6051 99.3403 42.5612 99.5962 42.4539C99.8522 42.3467 100.208 42.1809 100.596 41.9518C100.986 41.7227 101.412 41.4278 101.836 41.0865C102.265 40.7453 102.687 40.3528 103.079 39.9311C103.477 39.5168 103.835 39.0658 104.142 38.6173C104.447 38.1639 104.693 37.7106 104.878 37.2962C105.064 36.8843 105.188 36.5113 105.256 36.231C105.327 35.9604 105.349 35.7849 105.349 35.7849C105.536 34.1591 107.009 32.9916 108.637 33.1793C110.265 33.3669 111.433 34.8368 111.245 36.4626C111.099 37.752 110.136 38.7514 108.934 39.0171C108.934 39.0171 108.761 39.0561 108.498 39.156C108.227 39.2511 107.867 39.4119 107.474 39.6362C107.082 39.8629 106.653 40.1554 106.234 40.5015C105.817 40.8525 105.402 41.2547 105.032 41.691C104.649 42.1224 104.303 42.5831 104.006 43.0414C103.706 43.4972 103.457 43.9506 103.27 44.3625C103.079 44.7696 102.95 45.1401 102.87 45.4058C102.789 45.6714 102.76 45.8396 102.76 45.8396C102.487 47.3874 101.01 48.4234 99.4573 48.1504C97.9046 47.8774 96.8687 46.4027 97.1417 44.8549C97.3367 43.7409 98.1557 42.8951 99.1745 42.6051Z" fill="#FF3131"/>
<path d="M113.268 86.0486C113.268 86.0486 113.117 86.3899 112.9 86.9944C112.686 87.5964 112.415 88.4593 112.152 89.5026C112.02 90.0218 111.889 90.5873 111.769 91.1844C111.642 91.7816 111.533 92.4129 111.428 93.0662C111.321 93.7219 111.235 94.3995 111.15 95.0869C111.079 95.7767 111.001 96.4763 110.957 97.1783C110.896 97.8803 110.87 98.5823 110.843 99.2745C110.823 99.9668 110.823 100.649 110.836 101.312C110.853 101.973 110.882 102.614 110.928 103.221C110.974 103.83 111.035 104.408 111.104 104.939C111.24 106.007 111.421 106.899 111.574 107.525C111.73 108.152 111.854 108.513 111.854 108.513C112.539 110.507 111.477 112.676 109.48 113.361C107.482 114.046 105.307 112.983 104.622 110.989C104.279 109.995 104.376 108.947 104.805 108.069C104.805 108.069 104.973 107.728 105.207 107.126C105.439 106.524 105.729 105.661 106 104.62C106.134 104.101 106.265 103.535 106.39 102.938C106.509 102.341 106.621 101.71 106.721 101.054C106.814 100.401 106.901 99.7206 106.967 99.0332C107.031 98.3409 107.089 97.6414 107.118 96.9369C107.162 96.2349 107.172 95.5329 107.189 94.8383C107.189 94.1436 107.189 93.4611 107.167 92.8005C107.145 92.1375 107.113 91.4964 107.062 90.8895C107.021 90.2801 106.96 89.7024 106.894 89.1711C106.765 88.1059 106.604 87.2138 106.468 86.5898C106.326 85.9633 106.219 85.605 106.219 85.605C105.627 83.616 106.76 81.5246 108.751 80.9323C110.74 80.34 112.839 81.471 113.431 83.4576C113.697 84.3473 113.617 85.2613 113.268 86.0486Z" fill="#FF3131"/>
<path d="M78.0756 100.601C78.0756 100.601 78.3315 100.432 78.741 100.115C79.1481 99.7961 79.6989 99.3208 80.3059 98.7188C80.6106 98.4165 80.9299 98.085 81.2516 97.7243C81.5782 97.3635 81.9073 96.9735 82.2339 96.5664C82.5654 96.1594 82.8847 95.7255 83.2114 95.2843C83.5234 94.8358 83.8451 94.3824 84.1449 93.9144C84.4447 93.4464 84.7324 92.9736 85.0005 92.4958C85.2735 92.0229 85.5148 91.5379 85.7488 91.0699C85.9731 90.597 86.1802 90.1339 86.3606 89.6854C86.541 89.2344 86.6994 88.803 86.8311 88.3959C87.0992 87.5818 87.2674 86.8676 87.36 86.3533C87.4502 85.8366 87.4746 85.527 87.4746 85.527C87.633 83.3308 89.544 81.6831 91.7426 81.8415C93.9388 81.9999 95.5939 83.9085 95.433 86.1023C95.3355 87.4526 94.5531 88.608 93.4708 89.2515C93.4708 89.2515 93.2002 89.4099 92.7761 89.7195C92.3544 90.0291 91.7889 90.4946 91.1747 91.0918C90.8676 91.3916 90.5482 91.7231 90.2241 92.0839C89.8974 92.4446 89.5732 92.8346 89.2466 93.2441C88.9297 93.6609 88.6007 94.0899 88.296 94.5433C87.9889 94.9943 87.6866 95.4623 87.4014 95.9376C87.1138 96.4129 86.8481 96.9004 86.5824 97.3781C86.3289 97.8632 86.0779 98.3434 85.8609 98.8187C85.6367 99.294 85.4319 99.7596 85.2564 100.211C85.0712 100.657 84.9152 101.09 84.7787 101.495C84.5032 102.307 84.3204 103.011 84.2132 103.513C84.1084 104.023 84.0718 104.325 84.0718 104.325C83.8134 106.458 81.8732 107.976 79.7355 107.72C77.5978 107.462 76.0768 105.524 76.3352 103.391C76.479 102.212 77.1517 101.207 78.0756 100.601Z" fill="#FF3131"/>
<path d="M74.7533 111.979C74.7533 111.979 74.8239 112.237 74.9848 112.656C75.1457 113.073 75.4041 113.644 75.7575 114.285C75.933 114.604 76.1304 114.945 76.3547 115.291C76.5765 115.642 76.8251 115.993 77.0884 116.352C77.3492 116.712 77.6368 117.068 77.9318 117.429C78.2364 117.778 78.5411 118.136 78.8678 118.477C79.1895 118.818 79.5234 119.15 79.8647 119.464C80.2011 119.781 80.5569 120.069 80.9006 120.349C81.2516 120.622 81.6002 120.878 81.9439 121.107C82.2876 121.336 82.6239 121.541 82.9433 121.724C83.5819 122.085 84.162 122.338 84.5886 122.497C85.0151 122.655 85.2857 122.721 85.2857 122.721C87.516 123.267 88.8834 125.514 88.335 127.74C87.789 129.967 85.5368 131.33 83.3089 130.784C81.7221 130.396 80.5716 129.141 80.2376 127.654C80.2376 127.654 80.1767 127.381 80.0304 126.952C79.8793 126.523 79.6356 125.941 79.2894 125.295C79.1139 124.973 78.9141 124.632 78.6947 124.283C78.4704 123.937 78.2218 123.584 77.9561 123.228C77.6831 122.879 77.4004 122.516 77.0908 122.172C76.7837 121.826 76.4595 121.485 76.1256 121.156C75.7916 120.824 75.4382 120.512 75.0945 120.198C74.7386 119.901 74.3901 119.603 74.0366 119.333C73.6808 119.062 73.3322 118.809 72.9885 118.582C72.6448 118.35 72.3109 118.146 71.9916 117.963C71.3578 117.595 70.7899 117.327 70.3779 117.156C69.9636 116.988 69.7052 116.91 69.7052 116.91C67.5724 116.269 66.3634 114.024 67.0069 111.896C67.6479 109.768 69.8978 108.561 72.0306 109.202C73.3956 109.614 74.3876 110.706 74.7533 111.979Z" fill="#FF3131"/>
<path d="M88.8737 115.191C88.8737 115.191 89.0662 114.979 89.3612 114.599C89.6537 114.216 90.0364 113.663 90.4337 112.978C90.636 112.637 90.8407 112.262 91.0406 111.864C91.2429 111.464 91.4404 111.038 91.6305 110.597C91.8255 110.153 92.001 109.688 92.1789 109.217C92.3447 108.739 92.5129 108.257 92.6591 107.767C92.8078 107.279 92.9419 106.784 93.0564 106.297C93.1759 105.805 93.2612 105.317 93.344 104.842C93.4172 104.364 93.4781 103.901 93.5171 103.455C93.5537 103.011 93.5756 102.585 93.5805 102.187C93.5951 101.395 93.5439 100.718 93.4805 100.235C93.4147 99.7498 93.344 99.4646 93.344 99.4646C92.8054 97.2879 94.1338 95.0869 96.3154 94.5482C98.4945 94.0095 100.7 95.3379 101.239 97.5146C101.597 98.9576 101.129 100.418 100.14 101.39C100.14 101.39 99.9277 101.597 99.6182 101.973C99.311 102.351 98.9089 102.899 98.5018 103.582C98.2995 103.923 98.0947 104.296 97.8924 104.696C97.6901 105.093 97.4975 105.519 97.3099 105.965C97.1319 106.414 96.9442 106.875 96.7907 107.352C96.6298 107.83 96.4835 108.32 96.3519 108.815C96.2179 109.305 96.1106 109.807 95.9985 110.297C95.901 110.794 95.8059 111.279 95.7401 111.759C95.6694 112.237 95.6109 112.703 95.5768 113.149C95.5329 113.592 95.511 114.017 95.5012 114.414C95.4817 115.204 95.5159 115.876 95.5622 116.357C95.6134 116.834 95.667 117.115 95.667 117.115C96.0862 119.257 94.6847 121.331 92.5372 121.751C90.3922 122.168 88.313 120.771 87.8962 118.626C87.6476 117.351 88.0595 116.081 88.8737 115.191Z" fill="#FF3131"/>
<path d="M95.7694 131.437C95.7694 131.437 95.8498 131.584 96.0083 131.81C96.1691 132.035 96.4056 132.347 96.7151 132.68C97.0198 133.019 97.3976 133.385 97.8193 133.746C98.2435 134.106 98.7139 134.462 99.2038 134.784C99.4451 134.95 99.6962 135.101 99.9473 135.25C100.198 135.393 100.449 135.525 100.7 135.647C101.2 135.891 101.69 136.078 102.126 136.212C102.563 136.349 102.948 136.432 103.231 136.471C103.506 136.515 103.677 136.52 103.677 136.52C105.042 136.551 106.121 137.682 106.09 139.045C106.056 140.405 104.925 141.482 103.56 141.448C102.604 141.426 101.785 140.863 101.395 140.059C101.395 140.059 101.32 139.905 101.164 139.671C101.012 139.432 100.778 139.118 100.474 138.777C100.169 138.435 99.7961 138.067 99.3671 137.714C99.1526 137.538 98.9284 137.363 98.692 137.195C98.4555 137.031 98.2118 136.863 97.9607 136.712C97.4635 136.4 96.9443 136.12 96.4397 135.886C95.9351 135.652 95.4452 135.462 95.0113 135.323C94.5799 135.181 94.1972 135.094 93.9242 135.042C93.6512 134.991 93.4879 134.977 93.4879 134.977C92.1692 134.874 91.1845 133.724 91.2893 132.407C91.3941 131.091 92.547 130.111 93.8633 130.214C94.6896 130.28 95.3916 130.767 95.7694 131.437Z" fill="#FF3131"/>
<path d="M62.0466 71.2603C62.0466 71.2603 62.3366 71.4017 62.8461 71.5991C63.3579 71.7941 64.0868 72.0403 64.9667 72.2719C65.4079 72.3864 65.8856 72.501 66.3878 72.6034C66.8923 72.7106 67.4286 72.8033 67.977 72.8861C68.5303 72.9739 69.1031 73.0397 69.6808 73.1055C70.2634 73.1543 70.8533 73.2103 71.4456 73.2347C72.0354 73.2737 72.6278 73.281 73.2103 73.2834C73.7929 73.2834 74.3657 73.2639 74.9239 73.2323C75.4796 73.1933 76.0183 73.1469 76.5302 73.0811C77.0421 73.0153 77.5271 72.9398 77.9732 72.8569C78.8678 72.6863 79.6161 72.4815 80.1426 72.3084C80.6666 72.1329 80.9689 71.9989 80.9689 71.9989C82.9554 71.1141 85.2833 72.0038 86.1729 73.9879C87.0578 75.9696 86.1681 78.2949 84.1791 79.1798C83.0213 79.6965 81.7294 79.599 80.6934 79.0433C80.6934 79.0433 80.4034 78.8873 79.8939 78.6728C79.3821 78.4583 78.6533 78.195 77.7733 77.9561C77.3346 77.8391 76.8593 77.7221 76.3523 77.6198C75.8477 77.5149 75.3163 77.4248 74.763 77.3443C74.2097 77.2688 73.6393 77.2029 73.0592 77.1566C72.4766 77.1176 71.8868 77.0762 71.2944 77.0689C70.7021 77.0494 70.1098 77.0591 69.5273 77.064C68.9423 77.0811 68.3694 77.1006 67.8113 77.1469C67.2555 77.1883 66.7168 77.2371 66.2049 77.3053C65.6931 77.3663 65.208 77.4443 64.7619 77.5271C63.8674 77.6856 63.1191 77.8733 62.595 78.0293C62.0709 78.1877 61.7687 78.3047 61.7687 78.3047C59.7894 79.0823 57.5494 78.1073 56.7743 76.128C55.9943 74.1488 56.9717 71.916 58.9534 71.1384C59.9918 70.7314 61.1154 70.8118 62.0466 71.2603Z" fill="#FF3131"/>
<path d="M84.4277 61.7321C84.4277 61.7321 84.5593 61.425 84.7372 60.8814C84.9127 60.3403 85.1297 59.5676 85.3271 58.6389C85.4246 58.1734 85.5221 57.6712 85.6025 57.1374C85.6927 56.6085 85.7634 56.0479 85.8244 55.4677C85.8902 54.8852 85.934 54.2855 85.9755 53.6762C86.0023 53.0668 86.0364 52.4477 86.0389 51.8285C86.0535 51.2094 86.0364 50.5903 86.0194 49.9809C85.995 49.3715 85.9511 48.7719 85.8999 48.1918C85.839 47.6117 85.7707 47.051 85.6879 46.5197C85.6001 45.9859 85.505 45.4837 85.4027 45.0182C85.1979 44.0919 84.9639 43.3168 84.7714 42.7757C84.5739 42.2345 84.4277 41.925 84.4277 41.925C83.5087 39.9774 84.3448 37.6545 86.2948 36.7355C88.2472 35.8166 90.5726 36.6527 91.4915 38.5978C92.0059 39.6874 91.9644 40.911 91.4915 41.925C91.4915 41.925 91.3477 42.2345 91.1503 42.7757C90.9577 43.3168 90.7213 44.0919 90.519 45.0182C90.4166 45.4837 90.3215 45.9859 90.2338 46.5197C90.1509 47.051 90.0827 47.6117 90.0217 48.1918C89.9681 48.7719 89.9267 49.3715 89.9023 49.9809C89.8852 50.5903 89.8682 51.2094 89.8828 51.8285C89.8852 52.4477 89.9169 53.0668 89.9462 53.6762C89.9876 54.2855 90.029 54.8852 90.0949 55.4677C90.1582 56.0479 90.2289 56.6085 90.3167 57.1374C90.3995 57.6712 90.4946 58.1734 90.5945 58.6389C90.792 59.5676 91.0089 60.3403 91.182 60.8814C91.3624 61.425 91.494 61.7321 91.494 61.7321C92.3081 63.6797 91.3867 65.9197 89.4367 66.7339C87.4867 67.5455 85.2442 66.629 84.4277 64.6815C84.0182 63.704 84.0523 62.6413 84.4277 61.7321Z" fill="#FF3131"/>
<path d="M68.7399 85.8268C68.7399 88.1595 66.8484 90.0486 64.5109 90.0486C62.1733 90.0486 60.2794 88.1595 60.2794 85.8268C60.2794 83.4941 62.1733 81.6026 64.5109 81.6026C66.8484 81.6026 68.7399 83.4941 68.7399 85.8268Z" fill="#FF3131"/>
<mask id="mask0_4_139" style="mask-type:luminance" maskUnits="userSpaceOnUse" x="92" y="30" width="10" height="10">
<path d="M92.352 30.42H101.088V39.312H92.352V30.42Z" fill="white"/>
</mask>
<g mask="url(#mask0_4_139)">
<path d="M100.971 34.654C100.971 36.9867 99.0771 38.8782 96.7419 38.8782C94.4044 38.8782 92.5104 36.9867 92.5104 34.654C92.5104 32.3213 94.4044 30.4298 96.7419 30.4298C99.0771 30.4298 100.971 32.3213 100.971 34.654Z" fill="#FF3131"/>
</g>
<path d="M72.5693 65.1836C72.5693 67.5163 70.6753 69.4078 68.3402 69.4078C66.0026 69.4078 64.1087 67.5163 64.1087 65.1836C64.1087 62.8509 66.0026 60.9619 68.3402 60.9619C70.6753 60.9619 72.5693 62.8509 72.5693 65.1836Z" fill="#FF3131"/>
<path d="M103.835 124.171C103.835 126.501 101.941 128.393 99.606 128.393C97.2684 128.393 95.3745 126.501 95.3745 124.171C95.3745 121.836 97.2684 119.947 99.606 119.947C101.941 119.947 103.835 121.836 103.835 124.171Z" fill="#FF3131"/>
<path d="M113.268 69.4078C113.268 71.7405 111.374 73.6296 109.037 73.6296C106.702 73.6296 104.805 71.7405 104.805 69.4078C104.805 67.0751 106.702 65.1836 109.037 65.1836C111.374 65.1836 113.268 67.0751 113.268 69.4078Z" fill="#FF3131"/>
<path d="M86.9602 114.643C86.9602 115.959 85.8902 117.027 84.5739 117.027C83.2552 117.027 82.1876 115.959 82.1876 114.643C82.1876 113.329 83.2552 112.262 84.5739 112.262C85.8902 112.262 86.9602 113.329 86.9602 114.643Z" fill="#FF3131"/>
<path d="M61.9149 96.7127C61.9149 98.0265 60.8473 99.0941 59.5286 99.0941C58.2124 99.0941 57.1447 98.0265 57.1447 96.7127C57.1447 95.3964 58.2124 94.3313 59.5286 94.3313C60.8473 94.3313 61.9149 95.3964 61.9149 96.7127Z" fill="#FF3131"/>
<path d="M74.6143 124.171C74.6143 125.485 73.5467 126.553 72.228 126.553C70.9117 126.553 69.8417 125.485 69.8417 124.171C69.8417 122.855 70.9117 121.79 72.228 121.79C73.5467 121.79 74.6143 122.855 74.6143 124.171Z" fill="#FF3131"/>
<path d="M90.9748 104.425C90.9748 105.739 89.9072 106.806 88.5909 106.806C87.2747 106.806 86.2046 105.739 86.2046 104.425C86.2046 103.109 87.2747 102.044 88.5909 102.044C89.9072 102.044 90.9748 103.109 90.9748 104.425Z" fill="#FF3131"/>
<path d="M79.8818 69.4078C79.8818 70.7216 78.8141 71.7892 77.4954 71.7892C76.1768 71.7892 75.1091 70.7216 75.1091 69.4078C75.1091 68.0916 76.1768 67.0264 77.4954 67.0264C78.8141 67.0264 79.8818 68.0916 79.8818 69.4078Z" fill="#FF3131"/>
<path d="M79.8818 51.7286C79.8818 53.0449 78.8141 54.1101 77.4954 54.1101C76.1768 54.1101 75.1091 53.0449 75.1091 51.7286C75.1091 50.4124 76.1768 49.3472 77.4954 49.3472C78.8141 49.3472 79.8818 50.4124 79.8818 51.7286Z" fill="#FF3131"/>
<path d="M80.613 43.4826C80.613 44.7964 79.5454 45.864 78.2267 45.864C76.9104 45.864 75.8428 44.7964 75.8428 43.4826C75.8428 42.1663 76.9104 41.0987 78.2267 41.0987C79.5454 41.0987 80.613 42.1663 80.613 43.4826Z" fill="#FF3131"/>
<path d="M99.7401 56.6499C99.7401 57.9662 98.6724 59.0338 97.3538 59.0338C96.0351 59.0338 94.9674 57.9662 94.9674 56.6499C94.9674 55.3361 96.0351 54.2685 97.3538 54.2685C98.6724 54.2685 99.7401 55.3361 99.7401 56.6499Z" fill="#FF3131"/>
<path d="M96.8931 50.1564C96.8931 51.4703 95.823 52.5379 94.5043 52.5379C93.1881 52.5379 92.1205 51.4703 92.1205 50.1564C92.1205 48.8402 93.1881 47.775 94.5043 47.775C95.823 47.775 96.8931 48.8402 96.8931 50.1564Z" fill="#FF3131"/>
<path d="M90.3459 136.654C90.3459 137.967 89.2783 139.035 87.9596 139.035C86.6434 139.035 85.5757 137.967 85.5757 136.654C85.5757 135.337 86.6434 134.27 87.9596 134.27C89.2783 134.27 90.3459 135.337 90.3459 136.654Z" fill="#FF3131"/>
<path d="M104.376 87.3893C104.376 88.7055 103.309 89.7707 101.992 89.7707C100.674 89.7707 99.606 88.7055 99.606 87.3893C99.606 86.073 100.674 85.0078 101.992 85.0078C103.309 85.0078 104.376 86.073 104.376 87.3893Z" fill="#FF3131"/>
<path d="M101.99 78.936C101.99 80.2523 100.922 81.3174 99.606 81.3174C98.2873 81.3174 97.2197 80.2523 97.2197 78.936C97.2197 77.6198 98.2873 76.5546 99.606 76.5546C100.922 76.5546 101.99 77.6198 101.99 78.936Z" fill="#FF3131"/>
<path d="M166.81 106.148C166.81 106.148 166.757 105.885 166.623 105.456C166.489 105.027 166.269 104.44 165.957 103.777C165.801 103.443 165.626 103.089 165.423 102.731C165.226 102.365 165.002 101.995 164.763 101.617C164.524 101.239 164.258 100.864 163.988 100.484C163.705 100.115 163.422 99.7352 163.12 99.3744C162.82 99.0113 162.508 98.6554 162.186 98.319C161.869 97.9802 161.533 97.6682 161.206 97.3635C160.875 97.0661 160.543 96.7883 160.214 96.5348C159.888 96.2813 159.564 96.0521 159.256 95.8523C158.64 95.4452 158.077 95.1527 157.662 94.965C157.246 94.7773 156.98 94.6944 156.98 94.6944C154.793 93.9998 153.584 91.6671 154.282 89.4855C154.976 87.3015 157.311 86.0949 159.498 86.7921C161.05 87.2844 162.108 88.6031 162.345 90.1071C162.345 90.1071 162.386 90.3801 162.508 90.8213C162.63 91.26 162.835 91.8596 163.139 92.5299C163.293 92.8639 163.468 93.2173 163.671 93.5805C163.871 93.9413 164.095 94.3118 164.339 94.6871C164.587 95.0528 164.846 95.4354 165.133 95.8011C165.418 96.1667 165.721 96.5299 166.035 96.8809C166.347 97.2368 166.679 97.5731 167 97.9071C167.337 98.2313 167.666 98.5506 168.005 98.8431C168.341 99.138 168.673 99.4183 169.004 99.6669C169.328 99.9229 169.652 100.152 169.957 100.354C170.566 100.766 171.117 101.071 171.517 101.271C171.922 101.466 172.175 101.561 172.175 101.561C174.257 102.346 175.307 104.664 174.525 106.743C173.74 108.822 171.415 109.87 169.333 109.088C168.005 108.588 167.091 107.438 166.81 106.148Z" fill="black"/>
<path d="M133.97 71.8136C133.97 71.8136 133.914 71.5504 133.782 71.1214C133.646 70.6948 133.426 70.1049 133.114 69.4395C132.958 69.108 132.783 68.7546 132.581 68.3938C132.383 68.0306 132.159 67.6577 131.92 67.2823C131.681 66.9045 131.415 66.5291 131.147 66.1513C130.862 65.7808 130.582 65.4006 130.277 65.0398C129.977 64.6766 129.665 64.3208 129.346 63.9844C129.029 63.6456 128.69 63.3336 128.366 63.0289C128.032 62.7315 127.701 62.4512 127.374 62.1977C127.045 61.9466 126.721 61.7199 126.416 61.5152C125.799 61.1106 125.236 60.8156 124.82 60.6279C124.403 60.4427 124.139 60.3574 124.139 60.3574C121.951 59.6651 120.742 57.3324 121.439 55.1484C122.133 52.9693 124.471 51.7603 126.657 52.455C128.208 52.9474 129.266 54.2685 129.502 55.7724C129.502 55.7724 129.543 56.0454 129.665 56.4866C129.787 56.9254 129.992 57.525 130.299 58.1953C130.45 58.5293 130.628 58.8827 130.828 59.2459C131.028 59.6091 131.255 59.9771 131.496 60.3525C131.747 60.7181 132.003 61.1008 132.293 61.464C132.578 61.8321 132.878 62.1953 133.192 62.5463C133.504 62.9021 133.838 63.2361 134.16 63.5724C134.494 63.8966 134.823 64.2159 135.162 64.5084C135.498 64.8034 135.83 65.0837 136.161 65.3323C136.485 65.5883 136.81 65.8149 137.114 66.0197C137.724 66.4292 138.275 66.7363 138.677 66.9362C139.081 67.1336 139.332 67.2263 139.332 67.2263C141.416 68.0111 142.467 70.3292 141.682 72.4084C140.897 74.4876 138.574 75.5381 136.49 74.7533C135.164 74.2536 134.248 73.1031 133.97 71.8136Z" fill="black"/>
<path d="M165.467 59.1606C165.467 59.1606 165.331 59.1362 165.111 59.1338C164.892 59.1313 164.59 59.1411 164.253 59.1947C163.915 59.2459 163.539 59.3385 163.161 59.475C162.781 59.6091 162.398 59.787 162.038 60.0039C161.675 60.2111 161.338 60.4622 161.043 60.7352C160.751 61.0082 160.505 61.3056 160.312 61.5932C160.119 61.8759 159.983 62.1489 159.898 62.3634C159.812 62.5682 159.776 62.712 159.776 62.712C159.337 64.5231 157.511 65.637 155.695 65.2007C153.882 64.7619 152.763 62.9387 153.202 61.1276C153.633 59.3361 155.425 58.2294 157.216 58.6219C157.216 58.6219 157.358 58.6536 157.582 58.6633C157.811 58.6828 158.116 58.6779 158.459 58.6316C158.798 58.5829 159.174 58.4927 159.549 58.3489C159.922 58.2051 160.297 58.0125 160.643 57.7785C160.997 57.5494 161.326 57.2837 161.611 57.0009C161.901 56.7206 162.147 56.4257 162.342 56.1454C162.54 55.8651 162.681 55.5994 162.771 55.3995C162.866 55.2021 162.905 55.0704 162.905 55.0704C163.427 53.391 165.214 52.4501 166.896 52.9718C168.578 53.4934 169.518 55.2752 168.999 56.9546C168.524 58.4805 167.003 59.397 165.467 59.1606Z" fill="black"/>
<path d="M126.633 123.669C126.633 123.669 126.526 123.757 126.375 123.913C126.223 124.071 126.024 124.3 125.836 124.583C125.646 124.868 125.461 125.207 125.305 125.575C125.144 125.946 125.017 126.348 124.934 126.76C124.839 127.167 124.798 127.584 124.798 127.986C124.802 128.383 124.854 128.768 124.934 129.102C125.014 129.436 125.122 129.721 125.219 129.929C125.312 130.131 125.395 130.253 125.395 130.253C126.433 131.803 126.016 133.899 124.464 134.935C122.911 135.974 120.81 135.557 119.774 134.006C118.748 132.478 119.143 130.414 120.646 129.363C120.646 129.363 120.766 129.278 120.927 129.124C121.095 128.968 121.3 128.739 121.495 128.456C121.692 128.174 121.88 127.837 122.026 127.464C122.175 127.091 122.287 126.689 122.348 126.272C122.416 125.86 122.445 125.441 122.431 125.039C122.421 124.637 122.37 124.254 122.294 123.92C122.224 123.586 122.121 123.301 122.038 123.101C121.955 122.899 121.885 122.777 121.885 122.777C121 121.258 121.522 119.311 123.045 118.428C124.566 117.546 126.518 118.063 127.403 119.584C128.205 120.966 127.849 122.704 126.633 123.669Z" fill="black"/>
<path d="M131.245 47.2534C131.245 47.2534 131.216 47.0852 131.133 46.8195C131.055 46.5538 130.925 46.1857 130.735 45.7762C130.545 45.3667 130.297 44.9134 129.999 44.4551C129.704 43.9969 129.353 43.5386 128.973 43.1072C128.6 42.6684 128.188 42.2662 127.769 41.9177C127.352 41.5691 126.923 41.2791 126.528 41.0524C126.136 40.8257 125.777 40.6648 125.507 40.5722C125.244 40.4698 125.071 40.4308 125.071 40.4308C123.469 40.0798 122.455 38.5003 122.806 36.9037C123.16 35.3047 124.742 34.2932 126.343 34.6442C127.613 34.9221 128.512 35.9775 128.654 37.1987C128.654 37.1987 128.676 37.3742 128.749 37.6472C128.817 37.9226 128.939 38.298 129.124 38.7099C129.309 39.1267 129.558 39.5801 129.863 40.0311C130.167 40.482 130.526 40.9305 130.925 41.3473C131.318 41.7666 131.74 42.159 132.166 42.5002C132.59 42.8439 133.019 43.1364 133.409 43.3656C133.797 43.5971 134.15 43.7604 134.406 43.8677C134.667 43.9749 134.83 44.0212 134.83 44.0212C136.344 44.4478 137.226 46.02 136.8 47.5361C136.371 49.0474 134.794 49.9273 133.278 49.5007C132.191 49.1936 131.43 48.2942 131.245 47.2534Z" fill="black"/>
<path d="M127.784 87.0187C127.784 87.0187 127.676 87.3771 127.537 88.0035C127.401 88.6299 127.238 89.5196 127.108 90.5872C127.045 91.1186 126.984 91.6963 126.94 92.3032C126.891 92.9126 126.86 93.5537 126.838 94.2142C126.813 94.8772 126.816 95.5597 126.816 96.2544C126.833 96.9467 126.843 97.6511 126.887 98.3531C126.913 99.0551 126.974 99.7571 127.035 100.447C127.103 101.137 127.189 101.814 127.281 102.468C127.384 103.123 127.493 103.755 127.615 104.352C127.737 104.951 127.869 105.514 128.005 106.034C128.273 107.077 128.566 107.94 128.798 108.539C129.032 109.141 129.197 109.483 129.197 109.483C130.128 111.377 129.346 113.663 127.45 114.592C125.553 115.52 123.264 114.738 122.333 112.846C121.868 111.903 121.834 110.85 122.148 109.926C122.148 109.926 122.272 109.566 122.428 108.939C122.582 108.313 122.762 107.421 122.901 106.355C122.967 105.824 123.028 105.246 123.074 104.637C123.123 104.028 123.15 103.389 123.169 102.726C123.181 102.065 123.181 101.383 123.16 100.691C123.135 99.9984 123.108 99.294 123.047 98.5944C123.001 97.8924 122.926 97.1904 122.855 96.5031C122.767 95.8132 122.684 95.1356 122.577 94.4824C122.472 93.8291 122.36 93.1954 122.233 92.5982C122.116 92.001 121.985 91.4355 121.853 90.9139C121.59 89.8755 121.317 89.0102 121.105 88.4081C120.888 87.8036 120.734 87.4624 120.734 87.4624C119.896 85.5636 120.759 83.3454 122.66 82.5094C124.561 81.6733 126.782 82.5337 127.623 84.4301C127.996 85.2808 128.03 86.1949 127.784 87.0187Z" fill="black"/>
<path d="M149.931 105.739C149.931 105.739 149.894 105.434 149.789 104.929C149.682 104.425 149.499 103.72 149.224 102.911C149.087 102.507 148.934 102.073 148.748 101.624C148.57 101.173 148.366 100.708 148.144 100.235C147.925 99.7571 147.676 99.2794 147.422 98.7919C147.157 98.3141 146.891 97.8266 146.601 97.3537C146.316 96.876 146.016 96.408 145.706 95.9571C145.402 95.5037 145.073 95.0747 144.756 94.6579C144.429 94.2508 144.105 93.8584 143.781 93.4976C143.457 93.1393 143.137 92.8078 142.83 92.508C142.216 91.9084 141.648 91.4428 141.229 91.1357C140.805 90.8261 140.534 90.6677 140.534 90.6677C138.63 89.5537 137.992 87.1138 139.106 85.215C140.222 83.3162 142.664 82.6775 144.568 83.7915C145.738 84.4764 146.43 85.6879 146.53 86.9407C146.53 86.9407 146.552 87.2527 146.645 87.7695C146.735 88.2814 146.906 88.9955 147.171 89.8097C147.305 90.2167 147.461 90.6506 147.642 91.1015C147.822 91.55 148.032 92.0132 148.256 92.486C148.49 92.954 148.729 93.4367 149.002 93.9095C149.272 94.3873 149.558 94.8626 149.86 95.3282C150.16 95.7962 150.481 96.2495 150.791 96.6981C151.118 97.1392 151.437 97.5731 151.768 97.9802C152.098 98.3897 152.424 98.7797 152.753 99.1356C153.073 99.4987 153.394 99.8327 153.699 100.132C154.306 100.737 154.854 101.21 155.264 101.529C155.671 101.846 155.927 102.014 155.927 102.014C157.731 103.187 158.24 105.597 157.065 107.396C155.89 109.198 153.477 109.705 151.671 108.532C150.674 107.884 150.07 106.836 149.931 105.739Z" fill="black"/>
<path d="M164.3 118.326C164.3 118.326 164.041 118.402 163.627 118.57C163.213 118.743 162.645 119.011 162.011 119.377C161.694 119.559 161.358 119.764 161.016 119.998C160.67 120.222 160.322 120.478 159.968 120.749C159.612 121.017 159.264 121.312 158.91 121.614C158.567 121.926 158.213 122.238 157.879 122.57C157.545 122.899 157.221 123.24 156.912 123.586C156.602 123.93 156.322 124.293 156.049 124.642C155.783 125 155.532 125.351 155.31 125.697C155.088 126.046 154.889 126.384 154.715 126.709C154.367 127.355 154.126 127.94 153.974 128.369C153.826 128.798 153.765 129.068 153.765 129.068C153.268 131.306 151.047 132.717 148.807 132.22C146.562 131.723 145.151 129.507 145.648 127.267C146.001 125.675 147.232 124.503 148.717 124.135C148.717 124.135 148.987 124.069 149.414 123.913C149.84 123.754 150.421 123.498 151.059 123.138C151.379 122.957 151.717 122.75 152.061 122.523C152.402 122.292 152.751 122.038 153.102 121.763C153.446 121.483 153.801 121.195 154.14 120.878C154.479 120.564 154.813 120.232 155.137 119.891C155.461 119.552 155.768 119.194 156.073 118.843C156.366 118.482 156.656 118.129 156.917 117.768C157.18 117.41 157.428 117.054 157.648 116.705C157.872 116.359 158.072 116.02 158.247 115.698C158.601 115.057 158.857 114.487 159.018 114.07C159.179 113.653 159.252 113.393 159.252 113.393C159.849 111.252 162.072 109.997 164.217 110.592C166.362 111.189 167.617 113.407 167.02 115.55C166.64 116.92 165.567 117.934 164.3 118.326Z" fill="black"/>
<path d="M138.335 118.531C138.335 118.531 138.391 118.248 138.443 117.77C138.489 117.292 138.523 116.62 138.501 115.828C138.491 115.433 138.472 115.009 138.428 114.565C138.394 114.116 138.335 113.653 138.265 113.176C138.199 112.695 138.101 112.208 138.006 111.713C137.894 111.223 137.787 110.721 137.653 110.229C137.521 109.736 137.375 109.244 137.214 108.766C137.058 108.291 136.873 107.828 136.695 107.379C136.505 106.936 136.312 106.509 136.112 106.109C135.91 105.712 135.703 105.337 135.501 104.998C135.094 104.315 134.694 103.764 134.384 103.389C134.075 103.011 133.865 102.806 133.865 102.806C132.261 101.237 132.234 98.6651 133.804 97.0637C135.376 95.4622 137.953 95.4354 139.559 97.0027C140.622 98.046 140.99 99.5329 140.658 100.881C140.658 100.881 140.588 101.166 140.522 101.649C140.461 102.131 140.407 102.809 140.419 103.603C140.429 103.998 140.449 104.425 140.488 104.871C140.527 105.315 140.588 105.78 140.658 106.258C140.744 106.731 140.829 107.221 140.948 107.711C141.063 108.201 141.195 108.693 141.343 109.183C141.49 109.67 141.66 110.155 141.823 110.631C142.004 111.101 142.177 111.567 142.372 112.01C142.564 112.454 142.759 112.881 142.964 113.278C143.162 113.678 143.369 114.051 143.569 114.392C143.966 115.077 144.351 115.633 144.644 116.013C144.936 116.395 145.131 116.605 145.131 116.605C146.613 118.209 146.516 120.71 144.907 122.189C143.303 123.669 140.795 123.569 139.313 121.968C138.431 121.012 138.114 119.718 138.335 118.531Z" fill="black"/>
<path d="M140.517 136.393C140.517 136.393 140.351 136.405 140.078 136.456C139.805 136.507 139.425 136.595 138.991 136.736C138.557 136.875 138.067 137.065 137.563 137.299C137.061 137.533 136.541 137.814 136.044 138.126C135.791 138.277 135.549 138.445 135.313 138.608C135.076 138.777 134.85 138.955 134.638 139.128C134.209 139.483 133.833 139.849 133.531 140.19C133.226 140.532 132.992 140.846 132.841 141.087C132.685 141.319 132.61 141.472 132.61 141.472C132.015 142.699 130.538 143.213 129.309 142.618C128.081 142.026 127.567 140.551 128.161 139.325C128.578 138.465 129.431 137.958 130.328 137.933C130.328 137.933 130.499 137.931 130.777 137.882C131.057 137.845 131.44 137.763 131.876 137.626C132.315 137.494 132.805 137.304 133.304 137.063C133.553 136.941 133.807 136.807 134.058 136.663C134.306 136.517 134.557 136.366 134.801 136.198C135.291 135.876 135.761 135.52 136.186 135.159C136.607 134.799 136.983 134.433 137.29 134.097C137.597 133.76 137.833 133.451 137.994 133.224C138.155 132.997 138.235 132.853 138.235 132.853C138.877 131.698 140.332 131.281 141.49 131.92C142.645 132.559 143.062 134.014 142.423 135.169C142.021 135.891 141.285 136.324 140.517 136.393Z" fill="black"/>
<path d="M172.234 79.7209C172.234 79.7209 171.934 79.6014 171.407 79.4454C170.886 79.2894 170.137 79.1017 169.243 78.9409C168.794 78.8604 168.312 78.78 167.8 78.7191C167.288 78.6532 166.749 78.6021 166.191 78.5606C165.635 78.5167 165.06 78.4972 164.478 78.4753C163.895 78.4729 163.3 78.4631 162.71 78.4851C162.118 78.4924 161.526 78.5338 160.946 78.5728C160.363 78.6191 159.795 78.6825 159.239 78.7581C158.689 78.8409 158.157 78.9311 157.65 79.0335C157.146 79.1383 156.67 79.2529 156.229 79.3723C155.349 79.6087 154.62 79.8744 154.111 80.0865C153.601 80.301 153.311 80.4594 153.311 80.4594C151.398 81.4954 149.009 80.7909 147.968 78.8824C146.93 76.9738 147.634 74.5875 149.548 73.5491C150.659 72.9446 151.959 72.9397 153.036 73.4126C153.036 73.4126 153.336 73.5491 153.862 73.7222C154.386 73.8952 155.135 74.1 156.029 74.2706C156.478 74.3535 156.963 74.4315 157.472 74.4973C157.984 74.5607 158.523 74.6094 159.079 74.6484C159.637 74.6777 160.212 74.6996 160.795 74.6996C161.377 74.6947 161.967 74.6874 162.559 74.6484C163.152 74.6241 163.741 74.568 164.322 74.5192C164.902 74.451 165.472 74.3876 166.025 74.3023C166.576 74.217 167.11 74.1244 167.615 74.0171C168.119 73.9172 168.597 73.8026 169.036 73.6856C169.916 73.4565 170.647 73.2103 171.156 73.0153C171.668 72.8154 171.958 72.6741 171.958 72.6741C173.874 71.7478 176.18 72.5449 177.111 74.4559C178.04 76.3693 177.24 78.6703 175.327 79.599C174.323 80.0865 173.199 80.0938 172.234 79.7209Z" fill="black"/>
<path d="M142.511 63.1483C142.511 63.1483 142.64 62.8388 142.82 62.2976C142.996 61.7565 143.213 60.9814 143.41 60.0527C143.508 59.5896 143.603 59.085 143.686 58.5536C143.773 58.0223 143.844 57.4616 143.908 56.8815C143.976 56.2989 144.015 55.7018 144.059 55.0924C144.085 54.4806 144.12 53.8614 144.122 53.2448C144.134 52.6256 144.12 52.0041 144.103 51.3971C144.078 50.7878 144.034 50.1881 143.983 49.608C143.922 49.0279 143.851 48.4648 143.769 47.9334C143.683 47.4021 143.588 46.8999 143.486 46.4344C143.281 45.5057 143.047 44.733 142.852 44.1894C142.657 43.6483 142.511 43.3388 142.511 43.3388C141.592 41.3912 142.428 39.0683 144.378 38.1518C146.328 37.2328 148.656 38.0664 149.575 40.014C150.089 41.1036 150.048 42.3272 149.575 43.3388C149.575 43.3388 149.428 43.6483 149.233 44.1894C149.041 44.733 148.804 45.5057 148.6 46.4344C148.5 46.8999 148.402 47.4021 148.317 47.9334C148.232 48.4648 148.163 49.0279 148.105 49.608C148.051 50.1881 148.007 50.7878 147.985 51.3971C147.966 52.0041 147.949 52.6256 147.966 53.2448C147.968 53.8614 148.003 54.4806 148.027 55.0924C148.071 55.7018 148.112 56.2989 148.178 56.8815C148.241 57.4616 148.312 58.0223 148.4 58.5536C148.48 59.085 148.578 59.5896 148.678 60.0527C148.873 60.9814 149.09 61.7565 149.268 62.2976C149.446 62.8388 149.575 63.1483 149.575 63.1483C150.391 65.0959 149.47 67.3335 147.52 68.1476C145.57 68.9618 143.325 68.0428 142.511 66.0953C142.101 65.1178 142.135 64.0551 142.511 63.1483Z" fill="black"/>
<path d="M165.263 87.2406C165.263 89.5732 167.156 91.4623 169.494 91.4623C171.829 91.4623 173.723 89.5732 173.723 87.2406C173.723 84.9079 171.829 83.0164 169.494 83.0164C167.156 83.0164 165.263 84.9079 165.263 87.2406Z" fill="black"/>
<path d="M133.031 36.0677C133.031 38.4004 134.925 40.2919 137.263 40.2919C139.6 40.2919 141.492 38.4004 141.492 36.0677C141.492 33.735 139.6 31.8459 137.263 31.8459C134.925 31.8459 133.031 33.735 133.031 36.0677Z" fill="black"/>
<path d="M161.433 66.5998C161.433 68.9301 163.327 70.8216 165.665 70.8216C168.002 70.8216 169.896 68.9301 169.896 66.5998C169.896 64.2647 168.002 62.3756 165.665 62.3756C163.327 62.3756 161.433 64.2647 161.433 66.5998Z" fill="black"/>
<path d="M130.17 125.585C130.17 127.918 132.061 129.807 134.399 129.807C136.736 129.807 138.63 127.918 138.63 125.585C138.63 123.252 136.736 121.361 134.399 121.361C132.061 121.361 130.17 123.252 130.17 125.585Z" fill="black"/>
<path d="M122.153 69.4078C122.153 71.7405 122.628 75.0458 124.966 75.0458C127.303 75.0458 129.197 73.1543 129.197 70.8216C129.197 68.4889 127.303 66.5998 124.966 66.5998C122.628 66.5998 122.153 67.0751 122.153 69.4078Z" fill="black"/>
<path d="M147.045 116.057C147.045 117.373 148.112 118.441 149.431 118.441C150.747 118.441 151.817 117.373 151.817 116.057C151.817 114.743 150.747 113.675 149.431 113.675C148.112 113.675 147.045 114.743 147.045 116.057Z" fill="black"/>
<path d="M172.087 98.1264C172.087 99.4427 173.155 100.508 174.474 100.508C175.792 100.508 176.86 99.4427 176.86 98.1264C176.86 96.8126 175.792 95.745 174.474 95.745C173.155 95.745 172.087 96.8126 172.087 98.1264Z" fill="black"/>
<path d="M159.391 125.585C159.391 126.901 160.458 127.966 161.774 127.966C163.093 127.966 164.161 126.901 164.161 125.585C164.161 124.271 163.093 123.203 161.774 123.203C160.458 123.203 159.391 124.271 159.391 125.585Z" fill="black"/>
<path d="M143.028 105.839C143.028 107.155 144.098 108.22 145.414 108.22C146.733 108.22 147.8 107.155 147.8 105.839C147.8 104.525 146.733 103.457 145.414 103.457C144.098 103.457 143.028 104.525 143.028 105.839Z" fill="black"/>
<path d="M154.123 70.8216C154.123 72.1378 155.191 73.203 156.509 73.203C157.828 73.203 158.896 72.1378 158.896 70.8216C158.896 69.5053 157.828 68.4401 156.509 68.4401C155.191 68.4401 154.123 69.5053 154.123 70.8216Z" fill="black"/>
<path d="M154.123 53.1448C154.123 54.4611 155.191 55.5262 156.509 55.5262C157.828 55.5262 158.896 54.4611 158.896 53.1448C158.896 51.8286 157.828 50.7634 156.509 50.7634C155.191 50.7634 154.123 51.8286 154.123 53.1448Z" fill="black"/>
<path d="M153.389 44.8963C153.389 46.2101 154.459 47.2778 155.776 47.2778C157.094 47.2778 158.162 46.2101 158.162 44.8963C158.162 43.5801 157.094 42.5149 155.776 42.5149C154.459 42.5149 153.389 43.5801 153.389 44.8963Z" fill="black"/>
<path d="M134.265 58.0661C134.265 59.3799 135.332 60.4476 136.651 60.4476C137.967 60.4476 139.037 59.3799 139.037 58.0661C139.037 56.7499 137.967 55.6823 136.651 55.6823C135.332 55.6823 134.265 56.7499 134.265 58.0661Z" fill="black"/>
<path d="M137.112 51.5702C137.112 52.8864 138.179 53.9516 139.498 53.9516C140.814 53.9516 141.884 52.8864 141.884 51.5702C141.884 50.2564 140.814 49.1888 139.498 49.1888C138.179 49.1888 137.112 50.2564 137.112 51.5702Z" fill="black"/>
<path d="M143.656 138.067C143.656 139.384 144.727 140.449 146.043 140.449C147.361 140.449 148.429 139.384 148.429 138.067C148.429 136.751 147.361 135.686 146.043 135.686C144.727 135.686 143.656 136.751 143.656 138.067Z" fill="black"/>
<path d="M129.629 88.803C129.629 90.1193 130.696 91.1869 132.013 91.1869C133.329 91.1869 134.399 90.1193 134.399 88.803C134.399 87.4892 133.329 86.4216 132.013 86.4216C130.696 86.4216 129.629 87.4892 129.629 88.803Z" fill="black"/>
<path d="M132.013 80.3522C132.013 81.6685 133.08 82.7336 134.399 82.7336C135.715 82.7336 136.785 81.6685 136.785 80.3522C136.785 79.036 135.715 77.9708 134.399 77.9708C133.08 77.9708 132.013 79.036 132.013 80.3522Z" fill="black"/>
<path d="M28.8429 182.656C33.401 182.656 36.2017 180.486 36.2017 176.862C36.2017 173.815 34.1957 172.004 29.4206 170.878C26.4834 170.19 25.467 169.449 25.467 168.269C25.467 167.007 26.5931 166.239 28.431 166.239C30.4346 166.239 31.6436 167.282 31.6436 169.01H35.8434C35.8434 165.14 32.933 162.668 28.3774 162.668C23.9557 162.668 21.2111 164.837 21.2111 168.352C21.2111 171.482 23.3244 173.349 27.8265 174.31C30.5443 174.885 31.7801 175.682 31.7801 177.027C31.7801 178.317 30.6272 179.058 28.8161 179.058C26.7028 179.058 25.3305 177.988 25.3305 176.147H21.0478C21.0478 180.13 24.0118 182.656 28.8429 182.656Z" fill="black"/>
<path d="M47.592 182.656C52.5889 182.656 55.6358 179.526 55.6358 174.363V163.053H51.2702V174.061C51.2702 177.001 50.0368 178.509 47.592 178.509C45.1497 178.509 43.9138 177.001 43.9138 174.061V163.053H39.5483V174.363C39.5483 179.526 42.5952 182.656 47.592 182.656Z" fill="black"/>
<path d="M60.0547 182.27H64.4202V176.918H67.5768C72.2153 176.918 75.2086 174.2 75.2086 170C75.2086 165.771 72.2153 163.053 67.5768 163.053H60.0547V182.27ZM64.3934 173.157V166.87H67.2209C69.4975 166.87 70.7626 168.023 70.7626 170.027C70.7626 172.03 69.4975 173.157 67.2209 173.157H64.3934Z" fill="black"/>
<path d="M78.3096 182.27H91.2406V178.565H82.6484V174.363H90.1973V170.712H82.6484V166.731H90.9383V163.053H78.3096V182.27Z" fill="black"/>
<path d="M94.945 182.27H99.3106V176.286H102.192L105.624 182.27H110.677L106.696 175.599C109.002 174.583 110.345 172.496 110.345 169.669C110.345 165.578 107.547 163.053 103.155 163.053H94.945V182.27ZM99.2545 172.608V166.787H102.577C104.719 166.787 105.926 167.831 105.926 169.698C105.926 171.565 104.719 172.608 102.577 172.608H99.2545Z" fill="black"/>
<path d="M127.42 182.656C131.978 182.656 134.779 180.486 134.779 176.862C134.779 173.815 132.773 172.004 127.998 170.878C125.06 170.19 124.044 169.449 124.044 168.269C124.044 167.007 125.17 166.239 127.008 166.239C129.012 166.239 130.221 167.282 130.221 169.01H134.42C134.42 165.14 131.51 162.668 126.954 162.668C122.533 162.668 119.788 164.837 119.788 168.352C119.788 171.482 121.901 173.349 126.403 174.31C129.121 174.885 130.357 175.682 130.357 177.027C130.357 178.317 129.204 179.058 127.393 179.058C125.28 179.058 123.907 177.988 123.907 176.147H119.625C119.625 180.13 122.589 182.656 127.42 182.656Z" fill="black"/>
<path d="M138.318 182.27H142.683V174.502H144.989C145.345 174.502 145.647 174.502 145.976 174.473L150.096 182.27H155.173L149.986 172.854C150.754 172.113 151.332 171.153 151.824 169.89L154.488 163.053H149.767L147.953 168.05C147.295 169.861 146.498 170.439 144.331 170.439H142.683V163.053H138.318V182.27Z" fill="black"/>
<path d="M158.275 182.27H162.64V163.053H158.275V182.27Z" fill="black"/>
<path d="M167.251 182.27H180.016V178.18H171.617V163.053H167.251V182.27Z" fill="black"/>
<path d="M183.063 182.27H195.828V178.18H187.429V163.053H183.063V182.27Z" fill="black"/>
<path d="M205.573 182.656C210.131 182.656 212.932 180.486 212.932 176.862C212.932 173.815 210.926 172.004 206.151 170.878C203.214 170.19 202.197 169.449 202.197 168.269C202.197 167.007 203.323 166.239 205.161 166.239C207.165 166.239 208.374 167.282 208.374 169.01H212.574C212.574 165.14 209.663 162.668 205.108 162.668C200.686 162.668 197.941 164.837 197.941 168.352C197.941 171.482 200.055 173.349 204.557 174.31C207.275 174.885 208.51 175.682 208.51 177.027C208.51 178.317 207.357 179.058 205.546 179.058C203.433 179.058 202.061 177.988 202.061 176.147H197.778C197.778 180.13 200.742 182.656 205.573 182.656Z" fill="black"/>
</svg>
