<svg width="17" height="13" viewBox="0 0 17 13" fill="none" xmlns="http://www.w3.org/2000/svg">
<path d="M6.50119 2.33733C6.50119 2.33733 6.54441 2.4746 6.641 2.67797C6.7376 2.88642 6.88504 3.16605 7.08841 3.45584C7.29432 3.74818 7.55107 4.05832 7.85104 4.35066C8.151 4.64554 8.49418 4.92008 8.86024 5.15904C9.22376 5.40562 9.6127 5.60644 10.0042 5.75643C10.3931 5.90387 10.7846 6.00047 11.1405 6.05131C11.4964 6.09961 11.8167 6.10469 12.0531 6.08436C12.287 6.07164 12.437 6.04114 12.437 6.04114C14.3384 5.6217 16.2196 6.82156 16.639 8.72304C17.0585 10.622 15.8535 12.498 13.952 12.9175C12.0734 13.3293 10.2152 12.1599 9.76522 10.3042C9.76522 10.3042 9.72963 10.1542 9.63812 9.94069C9.55169 9.71953 9.40679 9.43482 9.20851 9.1374C9.00768 8.83743 8.74839 8.52984 8.44334 8.24512C8.13829 7.96041 7.78494 7.69604 7.40617 7.47996C7.02994 7.25626 6.63338 7.06814 6.23681 6.92833C5.84279 6.78851 5.45131 6.69191 5.09796 6.63599C4.74715 6.58006 4.42939 6.56989 4.20061 6.57244C3.97436 6.57752 3.832 6.6004 3.832 6.6004C2.01696 6.88003 0.318848 5.63695 0.0392188 3.82445C-0.24041 2.0094 1.00521 0.316373 2.82026 0.0392862C4.47007 -0.214922 6.02328 0.7892 6.50119 2.33733Z" fill="#FF3131"/>
</svg>
