<svg width="158" height="141" viewBox="0 0 158 141" fill="none" xmlns="http://www.w3.org/2000/svg">
<path d="M48.6861 71.3927C46.0398 67.2309 41.107 61.5149 41.107 56.5695C41.1655 54.9661 41.7071 53.4177 42.6606 52.1273C43.6142 50.8369 44.9353 49.8645 46.4509 49.3377C46.2068 45.1759 46.0398 40.937 46.0398 36.7366C46.0398 34.2575 46.0398 31.7527 46.1811 29.2993C46.3102 27.7388 46.5898 26.1945 47.0161 24.6879C48.9524 18.3808 53.1708 13.0222 58.8472 9.6591C60.8773 8.41819 63.0296 7.38944 65.2702 6.58912C69.3681 5.11193 71.7219 0.096805 76.1794 0.00688916C86.5975 -0.262858 99.3376 7.43689 106.018 14.6687C110.275 19.3765 112.696 25.4587 112.839 31.8041L112.415 50.0442C113.4 50.2487 114.318 50.6985 115.084 51.3518C115.85 52.0052 116.438 52.841 116.795 53.7821C118.221 59.5496 112.248 66.7043 109.473 71.29C106.904 75.516 97.1153 89.1832 97.1153 89.2731C97.1684 90.0558 97.475 90.7998 97.9888 91.3926C113.186 112.279 158 99.0962 158 140.637H79.6593L0 140.641C0 99.0868 44.6782 112.292 59.8621 91.4054C60.6071 90.3136 60.954 89.7099 60.9411 89.2346C60.9411 88.9649 49.6881 73.0498 48.6861 71.4441V71.3927Z" fill="white"/>
</svg>
